<?xml version="1.0" standalone="no"?>
<!DOCTYPE svg PUBLIC "-//W3C//DTD SVG 1.1//EN" "http://www.w3.org/Graphics/SVG/1.1/DTD/svg11.dtd" >
<svg xmlns="http://www.w3.org/2000/svg">
<metadata>Generated by IcoMoon</metadata>
<defs>
<font id="font-icon-admin-tgic" horiz-adv-x="1024">
<font-face units-per-em="1024" ascent="960" descent="-64" />
<missing-glyph horiz-adv-x="1024" />
<glyph unicode="&#x20;" horiz-adv-x="512" d="" />
<glyph unicode="&#xe900;" glyph-name="angry" d="M512 874.667c-235.264 0-426.667-191.403-426.667-426.667s191.403-426.667 426.667-426.667c235.264 0 426.667 191.403 426.667 426.667s-191.403 426.667-426.667 426.667zM512 106.667c-188.203 0-341.333 153.131-341.333 341.333s153.131 341.333 341.333 341.333c188.203 0 341.333-153.131 341.333-341.333s-153.131-341.333-341.333-341.333zM512 362.667c-128 0-170.667-128-170.667-128h341.333c0 0-42.667 128-170.667 128zM407.936 466.731c0.597 0.597 0.981 1.28 1.579 1.877l43.989-17.621 31.659 79.232-213.333 85.333-31.659-79.189 58.581-23.424-0.085-0.939c-0.026-12.672 3.712-25.067 10.741-35.61s17.030-18.761 28.737-23.612c11.706-4.847 24.59-6.11 37.015-3.627s23.834 8.602 32.776 17.579zM538.837 530.304l31.659-79.232 44.245 17.707c0.469-0.469 0.811-1.024 1.237-1.493 5.901-5.943 12.919-10.662 20.655-13.884 7.731-3.217 16.026-4.877 24.401-4.877s16.67 1.66 24.401 4.877c7.735 3.221 14.754 7.94 20.655 13.884 11.563 11.563 18.688 27.477 18.688 45.056l-0.043 0.427 59.136 23.637-31.659 79.232-213.376-85.333z" />
<glyph unicode="&#xe901;" glyph-name="area" d="M128 746.667v-597.333c0-47.061 38.272-85.333 85.333-85.333h597.333c47.061 0 85.333 38.272 85.333 85.333v597.333c0 47.061-38.272 85.333-85.333 85.333h-597.333c-47.061 0-85.333-38.272-85.333-85.333zM810.752 149.333h-597.419v597.333h597.333l0.085-597.333zM640 448h85.333v213.333h-213.333v-85.333h128v-128zM512 320h-128v128h-85.333v-213.333h213.333v85.333z" />
<glyph unicode="&#xe902;" glyph-name="bell" d="M810.667 380.331v153.003c0 137.259-93.227 252.885-219.52 287.659-12.501 31.488-43.051 53.675-79.147 53.675s-66.645-22.187-79.147-53.675c-126.293-34.816-219.52-150.4-219.52-287.659v-153.003l-72.832-72.832c-3.97-3.955-7.118-8.657-9.263-13.833-2.146-5.18-3.246-10.731-3.238-16.333v-85.333c0-11.315 4.495-22.17 12.497-30.17s18.854-12.497 30.17-12.497h682.667c11.315 0 22.17 4.497 30.17 12.497s12.497 18.854 12.497 30.17v85.333c0.009 5.602-1.092 11.153-3.238 16.333-2.146 5.175-5.295 9.877-9.263 13.833l-72.832 72.832zM810.667 234.667h-597.333v25.003l72.832 72.832c3.97 3.955 7.118 8.657 9.264 13.833 2.145 5.18 3.246 10.731 3.238 16.333v170.667c0 117.632 95.701 213.333 213.333 213.333s213.333-95.701 213.333-213.333v-170.667c0-11.349 4.48-22.187 12.501-30.165l72.832-72.832v-25.003zM512 21.333c26.423-0.034 52.203 8.166 73.749 23.458 21.547 15.296 37.794 36.919 46.485 61.875h-240.469c8.689-24.956 24.938-46.579 46.485-61.875 21.547-15.292 47.326-23.492 73.749-23.458z" />
<glyph unicode="&#xe903;" glyph-name="blog" d="M402.773 365.653c0-23.040-18.773-41.813-42.24-41.813h-99.84c-23.040 0-41.813 18.773-41.813 41.813s18.773 41.813 41.813 41.813h99.84c23.467 0 42.24-18.773 42.24-41.813zM402.773 499.2c0-23.040-18.773-41.813-42.24-41.813h-99.84c-23.040 0-41.813 18.773-41.813 41.813s18.773 41.813 41.813 41.813h99.84c23.467 0 42.24-18.773 42.24-41.813zM924.16 800c-42.24 42.667-111.36 42.667-153.6 0l-243.627-243.627c-50.773-51.2-78.933-118.613-78.933-190.72 0-23.040 18.773-41.813 41.813-41.813 72.107 0 139.52 28.16 190.72 78.933l243.627 244.053c42.24 42.24 42.24 110.933 0 153.173zM538.027 413.867c8.107 31.573 24.747 59.733 48.213 83.2l243.627 244.053c9.813 9.387 25.6 9.387 34.987 0s9.813-25.6 0-35.413l-243.627-243.627c-23.467-23.467-52.053-39.68-83.2-48.213zM822.613 373.76v-74.667c0-96.427-78.507-175.36-175.36-175.36h-337.067l-43.947-38.827c-19.627-17.92-45.653-27.733-72.107-27.733-59.733 0-108.8 48.64-108.8 108.8v399.787c0 96.853 78.933 175.36 175.36 175.36h279.467c23.040 0 41.813-18.773 41.813-41.813s-18.773-42.24-41.813-42.24h-279.467c-50.347 0-91.307-40.96-91.307-91.307v-399.787c0-13.653 11.093-25.173 24.747-25.173 5.973 0 11.947 2.56 16.64 6.4l55.467 49.92c7.68 6.827 17.493 10.667 27.733 10.667h353.28c50.347 0 91.733 40.96 91.733 91.307v74.667c0 23.040 18.773 41.813 41.813 41.813s41.813-18.773 41.813-41.813z" />
<glyph unicode="&#xe904;" glyph-name="body" d="M506.88 823.893c23.040 0 41.813-18.773 41.813-41.813s-18.773-41.813-41.813-41.813c-23.040 0-41.813 18.773-41.813 41.813s18.773 41.813 41.813 41.813zM506.88 874.667c-51.2 0-92.587-41.387-92.587-92.587s41.387-92.587 92.587-92.587c51.2 0 92.587 41.387 92.587 92.587s-41.387 92.587-92.587 92.587zM615.253 21.333c-13.653 0-27.307 4.267-38.4 12.373-14.507 10.24-23.893 25.6-26.88 43.093l-35.84 205.227c-1.707 6.4-4.267 14.507-7.253 20.48-2.987-6.4-5.973-14.507-7.68-21.76l-35.413-203.947c-2.987-17.92-12.8-33.28-27.307-43.093-14.507-10.24-32-14.080-49.493-11.093-35.84 6.4-60.16 40.96-53.76 77.227l58.453 332.8c8.533 55.040 3.84 73.813 2.133 78.507-2.56 6.4-4.267 6.4-5.547 6.4h-151.893c-36.267 0-65.707 29.44-65.707 66.133s29.44 66.133 65.707 66.133h541.013c17.493 0 34.133-6.827 46.507-19.2s19.2-29.013 19.2-46.933c0-36.267-29.44-66.133-65.707-66.133h-152.747c0 0-3.413-2.133-5.12-5.973-1.707-4.267-6.4-23.467 2.133-78.933l5.12-28.16 2.987-2.987-0.853-8.96 51.2-292.267c5.973-37.547-18.347-71.68-54.613-77.653-3.413-0.427-7.253-0.853-10.667-0.853l0.427-0.427zM506.88 360.96c38.4 0 53.76-52.48 57.173-68.693l35.84-206.933c0.853-4.267 2.987-8.107 6.4-10.24 3.413-2.56 7.253-3.413 11.093-2.56 8.107 1.28 14.080 9.387 12.8 17.92l-58.453 333.653c-8.107 49.92-7.68 84.053 0.427 105.387 9.387 24.32 29.013 38.827 52.48 38.827h152.747c8.107 0 14.933 6.827 14.933 14.933s-6.827 14.933-14.933 14.933h-541.013c-8.107 0-14.933-6.827-14.933-14.933s6.827-14.933 14.933-14.933h152.32c24.32 0 43.52-14.080 52.907-38.827 8.107-21.333 8.533-55.467 0.427-104.96l-5.973-33.707 0.853-7.68-2.56-3.413-50.347-288.853c-1.28-8.533 4.267-16.64 12.8-18.347 3.84-0.427 7.68 0 11.093 2.56 3.413 2.133 5.547 5.973 6.4 9.813l35.84 205.653c4.267 17.493 19.2 69.973 57.6 69.973l-0.853 0.427z" />
<glyph unicode="&#xe905;" glyph-name="bug-alt" d="M384 576h256v-85.333h-256v85.333zM384 405.333h256v-85.333h-256v85.333zM768 729.003l72.832 72.832-60.331 60.331-66.688-66.645c-53.205 48.939-123.989 79.147-201.813 79.147s-148.608-30.208-201.813-79.147l-66.688 66.645-60.331-60.331 72.832-72.832c-27.897-46.161-42.651-99.067-42.667-153.003h-85.333v-85.333h85.333v-85.333h-85.333v-85.333h85.333c0-164.693 134.016-298.667 298.667-298.667s298.667 133.973 298.667 298.667h85.333v85.333h-85.333v85.333h85.333v85.333h-85.333c-0.017 53.936-14.771 106.842-42.667 153.003zM725.333 320c0-117.632-95.701-213.333-213.333-213.333s-213.333 95.701-213.333 213.333v256c0 117.632 95.701 213.333 213.333 213.333s213.333-95.701 213.333-213.333v-256z" />
<glyph unicode="&#xe906;" glyph-name="calendar-check" d="M810.667 789.333h-85.333v85.333h-85.333v-85.333h-256v85.333h-85.333v-85.333h-85.333c-47.061 0-85.333-38.272-85.333-85.333v-597.333c0-47.061 38.272-85.333 85.333-85.333h597.333c47.061 0 85.333 38.272 85.333 85.333v597.333c0 47.061-38.272 85.333-85.333 85.333zM810.752 106.667h-597.419v512h597.333l0.085-512zM469.333 217.003l243.499 243.499-60.331 60.331-183.168-183.168-97.835 97.835-60.331-60.331 158.165-158.165z" />
<glyph unicode="&#xe907;" glyph-name="calendar-edit" d="M810.667 789.333h-128v85.333h-85.333v-85.333h-170.667v85.333h-85.333v-85.333h-128c-47.061 0-85.333-38.272-85.333-85.333v-597.333c0-47.061 38.272-85.333 85.333-85.333h597.333c47.061 0 85.333 38.272 85.333 85.333v597.333c0 47.061-38.272 85.333-85.333 85.333zM213.333 106.667v554.667h597.333v42.667l0.085-597.333h-597.419zM666.795 440.192l-76.8 76.757 58.453 58.496 76.8-76.757-58.453-58.496zM341.547 268.757v-76.757h76.757l212.309 212.053-76.757 76.757-212.309-212.053z" />
<glyph unicode="&#xe908;" glyph-name="cart-add" d="M448 64c35.345 0 64 28.655 64 64s-28.655 64-64 64c-35.346 0-64-28.655-64-64s28.654-64 64-64zM746.667 64c35.345 0 64 28.655 64 64s-28.655 64-64 64c-35.345 0-64-28.655-64-64s28.655-64 64-64zM554.667 405.333h85.333v127.573h127.573v85.333h-127.573v127.147h-85.333v-127.147h-127.573v-85.333h127.573v-127.573zM426.667 234.667h341.333c8.593 0.026 16.981 2.645 24.064 7.518 7.078 4.873 12.523 11.772 15.616 19.789l120.747 314.027h-91.307l-98.56-256h-283.307l-191.573 459.52c-6.496 15.571-17.46 28.867-31.51 38.208s-30.552 14.308-47.424 14.272h-99.413v-85.333h99.413l202.667-485.547c3.201-7.791 8.637-14.46 15.622-19.17 6.985-4.706 15.208-7.241 23.631-7.283z" />
<glyph unicode="&#xe909;" glyph-name="cart-download" d="M448 64c35.345 0 64 28.655 64 64s-28.655 64-64 64c-35.346 0-64-28.655-64-64s28.654-64 64-64zM746.667 64c35.345 0 64 28.655 64 64s-28.655 64-64 64c-35.345 0-64-28.655-64-64s28.655-64 64-64zM597.333 363.093l170.667 213.333h-128v170.667h-85.333v-170.667h-128l170.667-213.333zM738.56 320h-283.307l-191.573 459.52c-6.496 15.571-17.46 28.867-31.51 38.208s-30.552 14.308-47.424 14.272h-99.413v-85.333h99.413l202.667-485.547c3.201-7.791 8.637-14.46 15.622-19.17 6.985-4.706 15.208-7.241 23.631-7.283h341.333c8.593 0.026 16.981 2.645 24.064 7.518 7.078 4.873 12.523 11.772 15.616 19.789l120.747 314.027h-91.307l-98.56-256z" />
<glyph unicode="&#xe90a;" glyph-name="chart" d="M213.333 64h597.333c47.061 0 85.333 38.272 85.333 85.333v597.333c0 47.061-38.272 85.333-85.333 85.333h-597.333c-47.061 0-85.333-38.272-85.333-85.333v-597.333c0-47.061 38.272-85.333 85.333-85.333zM213.333 746.667h597.333l0.043-597.333h-597.376v597.333zM578.261 462.592l-170.667 85.333-104.448-208.853 76.373-38.144 66.219 132.48 170.667-85.333 104.448 208.853-76.373 38.144-66.219-132.48z" />
<glyph unicode="&#xe90b;" glyph-name="chat" d="M213.333 192v-160.683l267.819 160.683h201.515c47.061 0 85.333 38.272 85.333 85.333v341.333c0 47.061-38.272 85.333-85.333 85.333h-512c-47.061 0-85.333-38.272-85.333-85.333v-341.333c0-47.061 38.272-85.333 85.333-85.333h42.667zM170.667 618.667h512v-341.333h-225.152l-158.848-95.317v95.317h-128v341.333zM853.333 874.667h-512c-47.061 0-85.333-38.272-85.333-85.333h512c47.061 0 85.333-38.272 85.333-85.333v-341.333c47.061 0 85.333 38.272 85.333 85.333v341.333c0 47.061-38.272 85.333-85.333 85.333z" />
<glyph unicode="&#xe90c;" glyph-name="chat-1" d="M213.333 192v-160.683l267.819 160.683h201.515c47.061 0 85.333 38.272 85.333 85.333v341.333c0 47.061-38.272 85.333-85.333 85.333h-512c-47.061 0-85.333-38.272-85.333-85.333v-341.333c0-47.061 38.272-85.333 85.333-85.333h42.667zM170.667 618.667h512v-341.333h-225.152l-158.848-95.317v95.317h-128v341.333zM853.333 874.667h-512c-47.061 0-85.333-38.272-85.333-85.333h512c47.061 0 85.333-38.272 85.333-85.333v-341.333c47.061 0 85.333 38.272 85.333 85.333v341.333c0 47.061-38.272 85.333-85.333 85.333z" />
<glyph unicode="&#xe90d;" glyph-name="check-square" d="M466.475 383.189l-94.976 94.976-60.331-60.331 161.024-161.024 243.285 291.84-65.621 54.699-183.381-220.16zM810.667 832h-597.333c-47.061 0-85.333-38.272-85.333-85.333v-597.333c0-47.061 38.272-85.333 85.333-85.333h597.333c47.061 0 85.333 38.272 85.333 85.333v597.333c0 47.061-38.272 85.333-85.333 85.333zM213.333 149.333v597.333h597.333l0.085-597.333h-597.419z" />
<glyph unicode="&#xe90e;" glyph-name="chevron-down" d="M695.168 563.499l-183.168-183.168-183.167 183.168-60.331-60.331 243.497-243.499 243.499 243.499-60.331 60.331z" />
<glyph unicode="&#xe90f;" glyph-name="chevron-left" d="M567.168 691.499l-243.499-243.499 243.499-243.499 60.331 60.331-183.168 183.168 183.168 183.168-60.331 60.331z" />
<glyph unicode="&#xe910;" glyph-name="chevron-right" d="M456.832 204.501l243.499 243.499-243.499 243.499-60.329-60.331 183.167-183.168-183.167-183.168 60.329-60.331z" />
<glyph unicode="&#xe911;" glyph-name="chevron-up" d="M268.503 392.832l60.331-60.331 183.167 183.168 183.168-183.168 60.331 60.331-243.499 243.499-243.497-243.499z" />
<glyph unicode="&#xe912;" glyph-name="chip" d="M384 576h256v-256h-256v256zM853.333 704c0 47.061-38.272 85.333-85.333 85.333h-85.333v85.333h-85.333v-85.333h-170.667v85.333h-85.333v-85.333h-85.333c-47.061 0-85.333-38.272-85.333-85.333v-85.333h-85.333v-85.333h85.333v-170.667h-85.333v-85.333h85.333v-85.333c0-47.061 38.272-85.333 85.333-85.333h85.333v-85.333h85.333v85.333h170.667v-85.333h85.333v85.333h85.333c47.061 0 85.333 38.272 85.333 85.333v85.333h85.333v85.333h-85.333v170.667h85.333v85.333h-85.333v85.333zM256 192v512h512l0.085-512h-512.085z" />
<glyph unicode="&#xe913;" glyph-name="cog" d="M512 277.333c94.123 0 170.667 76.544 170.667 170.667s-76.544 170.667-170.667 170.667c-94.124 0-170.668-76.544-170.668-170.667s76.544-170.667 170.668-170.667zM512 533.333c46.251 0 85.333-39.083 85.333-85.333s-39.083-85.333-85.333-85.333c-46.251 0-85.334 39.083-85.334 85.333s39.084 85.333 85.334 85.333zM121.386 271.531l42.667-73.813c22.656-39.125 77.184-53.803 116.48-31.147l22.571 13.056c24.684-19.418 51.9-35.379 80.896-47.445v-25.515c0-47.061 38.272-85.333 85.334-85.333h85.333c47.061 0 85.333 38.272 85.333 85.333v25.515c28.983 12.066 56.201 28.015 80.896 47.403l22.571-13.056c39.381-22.613 93.781-8.021 116.523 31.189l42.624 73.771c11.307 19.597 14.374 42.88 8.525 64.738-5.85 21.854-20.134 40.495-39.714 51.827l-21.547 12.459c4.578 31.462 4.578 63.428 0 94.891l21.547 12.459c19.571 11.341 33.852 29.981 39.697 51.833s2.786 45.133-8.508 64.732l-42.624 73.771c-22.656 39.253-77.141 53.973-116.523 31.232l-22.571-13.056c-24.687 19.417-51.9 35.379-80.896 47.445v25.515c0 47.061-38.272 85.333-85.333 85.333h-85.333c-47.062 0-85.334-38.272-85.334-85.333v-25.515c-28.986-12.068-56.2-28.015-80.896-47.403l-22.571 13.056c-39.424 22.656-93.867 7.979-116.523-31.232l-42.624-73.771c-11.308-19.597-14.374-42.88-8.526-64.736s20.132-40.497 39.715-51.829l21.547-12.459c-4.598-31.45-4.598-63.398 0-94.848l-21.547-12.459c-19.577-11.349-33.855-29.995-39.702-51.857-5.847-21.858-2.786-45.146 8.512-64.751zM263.295 389.205c-4.818 19.23-7.268 38.972-7.296 58.795 0 19.712 2.475 39.509 7.253 58.795 2.25 8.99 1.51 18.466-2.109 26.996s-9.918 15.649-17.945 20.279l-47.915 27.733 42.581 73.771 48.853-28.245c7.967-4.61 17.214-6.512 26.354-5.419s17.678 5.12 24.334 11.478c28.865 27.453 63.673 47.88 101.718 59.691 8.738 2.668 16.388 8.071 21.828 15.414 5.436 7.343 8.375 16.238 8.38 25.375v55.467h85.333v-55.467c0.004-9.137 2.94-18.032 8.38-25.375 5.436-7.343 13.090-12.746 21.828-15.414 38.037-11.828 72.841-32.252 101.717-59.691 6.66-6.345 15.198-10.365 24.337-11.457 9.135-1.092 18.381 0.802 26.351 5.398l48.811 28.203 42.667-73.771-47.957-27.691c-8.021-4.634-14.319-11.754-17.937-20.283s-4.361-18.002-2.116-26.992c4.779-19.285 7.253-39.083 7.253-58.795 0-19.669-2.475-39.467-7.296-58.795-2.24-8.994-1.489-18.47 2.138-26.999 3.622-8.529 9.929-15.646 17.958-20.275l47.915-27.691-42.581-73.771-48.853 28.203c-7.966 4.617-17.216 6.524-26.355 5.431-9.143-1.092-17.681-5.124-24.333-11.49-28.864-27.452-63.676-47.881-101.717-59.691-8.738-2.667-16.393-8.073-21.828-15.415-5.44-7.343-8.375-16.235-8.38-25.374l0.085-55.467h-85.419v55.467c-0.004 9.139-2.944 18.031-8.38 25.374-5.44 7.343-13.090 12.749-21.828 15.415-38.038 11.827-72.842 32.252-101.718 59.691-6.643 6.383-15.187 10.423-24.335 11.507-9.148 1.088-18.401-0.841-26.353-5.491l-48.811-28.245-42.667 73.771 47.957 27.776c8.029 4.629 14.334 11.746 17.96 20.275s4.375 18.005 2.136 26.999z" />
<glyph unicode="&#xe914;" glyph-name="comment-detail" d="M298.667 661.333h426.667v-85.333h-426.667v85.333zM298.667 490.667h298.667v-85.333h-298.667v85.333zM853.333 874.667h-682.667c-47.061 0-85.333-38.272-85.333-85.333v-768l227.541 170.667h540.459c47.061 0 85.333 38.272 85.333 85.333v512c0 47.061-38.272 85.333-85.333 85.333zM853.333 277.333h-568.875l-113.792-85.333v597.333h682.667v-512z" />
<glyph unicode="&#xe915;" glyph-name="conversation" d="M704 362.667c35.285 0 64 28.715 64 64v384c0 35.285-28.715 64-64 64h-554.667c-35.285 0-64-28.715-64-64v-618.667l227.541 170.667h391.125zM284.459 448l-113.792-85.333v426.667h512v-341.333h-398.208zM874.667 618.667h-21.333v-256.043c0-46.933-38.101-85.035-84.907-85.291h-427.093v-21.333c0-35.285 28.715-64 64-64h305.792l227.541-170.667v533.333c0 35.285-28.715 64-64 64z" />
<glyph unicode="&#xe916;" glyph-name="copy" d="M853.333 874.667h-426.667c-47.061 0-85.333-38.272-85.333-85.333v-170.667h-170.667c-47.061 0-85.333-38.272-85.333-85.333v-426.667c0-47.061 38.272-85.333 85.333-85.333h426.667c47.061 0 85.333 38.272 85.333 85.333v170.667h170.667c47.061 0 85.333 38.272 85.333 85.333v426.667c0 47.061-38.272 85.333-85.333 85.333zM170.667 106.667v426.667h426.667l0.085-426.667h-426.752zM853.333 362.667h-170.667v170.667c0 47.061-38.272 85.333-85.333 85.333h-170.667v170.667h426.667v-426.667z" />
<glyph unicode="&#xe917;" glyph-name="credit-card" d="M853.333 789.333h-682.667c-47.061 0-85.333-38.272-85.333-85.333v-512c0-47.061 38.272-85.333 85.333-85.333h682.667c47.061 0 85.333 38.272 85.333 85.333v512c0 47.061-38.272 85.333-85.333 85.333zM170.667 704h682.667v-85.333h-682.667v85.333zM170.667 192v256h682.709l0.043-256h-682.752zM256 362.667h256v-85.333h-256v85.333z" />
<glyph unicode="&#xe918;" glyph-name="credit-card-alt" d="M661.333 277.333c58.91 0 106.667 47.757 106.667 106.667s-47.757 106.667-106.667 106.667c-58.91 0-106.667-47.757-106.667-106.667s47.757-106.667 106.667-106.667zM512 384c0 34.773 16.896 65.365 42.667 84.821-18.355 14.114-40.845 21.79-64 21.845-28.288 0-55.42-11.238-75.425-31.241-20.004-20.006-31.242-47.138-31.242-75.426s11.238-55.42 31.242-75.426c20.005-20.002 47.137-31.241 75.425-31.241 23.155 0.055 45.645 7.731 64 21.845-13.214 9.852-23.949 22.647-31.356 37.372-7.403 14.72-11.277 30.967-11.311 47.45zM853.333 789.333h-682.667c-47.061 0-85.333-38.272-85.333-85.333v-512c0-47.061 38.272-85.333 85.333-85.333h682.667c47.061 0 85.333 38.272 85.333 85.333v512c0 47.061-38.272 85.333-85.333 85.333zM170.667 192v512h682.667l0.085-512h-682.752z" />
<glyph unicode="&#xe919;" glyph-name="data" d="M853.333 234.667v426.667c0 92.501-156.288 170.667-341.333 170.667s-341.333-78.165-341.333-170.667v-426.667c0-92.501 156.288-170.667 341.333-170.667s341.333 78.165 341.333 170.667zM512 746.667c157.483 0 253.056-64.299 256-85.077-2.944-21.291-98.517-85.589-256-85.589s-253.056 64.299-256 85.077c2.944 21.291 98.517 85.589 256 85.589zM256 550.101c63.104-36.139 155.179-59.435 256-59.435s192.896 23.296 256 59.435v-101.845c-2.944-21.291-98.517-85.589-256-85.589s-253.056 64.299-256 85.333v102.101zM256 234.667v102.101c63.104-36.139 155.179-59.435 256-59.435s192.896 23.296 256 59.435v-101.845c-2.944-21.291-98.517-85.589-256-85.589s-253.056 64.299-256 85.333z" />
<glyph unicode="&#xe91a;" glyph-name="delivery" d="M773.376 351.194c-71.172 0-129.075-57.903-129.075-129.075s57.903-129.075 129.075-129.075c71.189 0 129.079 57.903 129.079 129.075s-57.903 129.075-129.079 129.075zM773.376 157.581c-35.588 0-64.538 28.945-64.538 64.538s28.949 64.538 64.538 64.538c35.593 0 64.542-28.945 64.542-64.538s-28.949-64.538-64.542-64.538zM332.37 351.194c-71.174 0-129.076-57.903-129.076-129.075s57.902-129.075 129.076-129.075c71.174 0 129.074 57.903 129.074 129.075s-57.9 129.075-129.074 129.075zM332.37 157.581c-35.592 0-64.538 28.945-64.538 64.538s28.946 64.538 64.538 64.538c35.582 0 64.538-28.945 64.538-64.538s-28.946-64.538-64.538-64.538zM860.301 720.65c-5.487 10.896-16.64 17.77-28.838 17.77h-169.95v-64.538h150.050l87.868-174.767 57.677 29.001-96.806 192.535zM676.57 253.312h-244.164v-64.542h244.164v64.542zM235.562 253.312h-111.864c-17.824 0-32.268-14.447-32.268-32.269 0-17.826 14.446-32.269 32.268-32.269h111.866c17.824 0 32.268 14.447 32.268 32.269s-14.446 32.269-32.27 32.269zM1017.225 450.581l-63.471 81.749c-6.101 7.873-15.514 12.477-25.485 12.477h-234.487v225.882c0 17.824-14.447 32.268-32.269 32.268h-537.815c-17.824 0-32.268-14.446-32.268-32.268s14.446-32.268 32.268-32.268h505.546v-225.884c0-17.822 14.447-32.265 32.269-32.265h250.957l46.993-60.535v-166.426h-89.28c-17.822 0-32.269-14.443-32.269-32.265 0-17.826 14.447-32.269 32.269-32.269h121.549c17.822 0 32.265 14.447 32.269 32.269v209.741c0 7.164-2.389 14.135-6.775 19.793zM233.412 416.806h-148.438c-17.824 0-32.268-14.447-32.268-32.269s14.446-32.269 32.268-32.269h148.436c17.824 0 32.268 14.447 32.268 32.269 0.002 17.822-14.444 32.269-32.266 32.269zM307.63 543.732h-275.362c-17.822 0-32.268-14.447-32.268-32.269 0-17.826 14.446-32.269 32.268-32.269h275.362c17.824 0 32.268 14.447 32.268 32.269s-14.444 32.269-32.268 32.269zM360.336 670.656h-275.362c-17.824 0-32.268-14.446-32.268-32.268 0-17.824 14.446-32.268 32.268-32.268h275.362c17.824 0 32.268 14.446 32.268 32.268 0.002 17.822-14.444 32.268-32.268 32.268z" />
<glyph unicode="&#xe91b;" glyph-name="dollar-circle" d="M512 874.667c-84.386 0-166.878-25.024-237.043-71.906s-124.852-113.519-157.145-191.482c-32.294-77.962-40.743-163.752-24.28-246.516s57.099-158.788 116.77-218.462c59.67-59.669 135.695-100.305 218.46-116.77 82.765-16.461 168.555-8.013 246.515 24.282 77.965 32.294 144.602 86.98 191.484 157.146s71.906 152.657 71.906 237.043c0 56.030-11.038 111.513-32.478 163.278s-52.868 98.801-92.489 138.421c-39.62 39.619-86.656 71.048-138.423 92.49-51.763 21.442-107.247 32.478-163.277 32.478zM512 106.667c-67.507 0-133.502 20.019-189.635 57.523-56.132 37.508-99.881 90.816-125.716 153.186s-32.594 131.004-19.424 197.214c13.17 66.213 45.679 127.033 93.416 174.769s108.556 80.245 174.769 93.416c66.21 13.17 134.844 6.411 197.214-19.424s115.678-69.584 153.186-125.716c37.504-56.132 57.523-122.123 57.523-189.635 0-90.526-35.959-177.348-99.972-241.361-64.013-64.009-150.835-99.972-241.361-99.972zM512 490.667c-85.333 0-85.333 26.88-85.333 42.667s29.867 42.667 85.333 42.667c55.467 0 59.307-27.307 59.733-42.667h85.333c-0.576 29.066-11.029 57.071-29.641 79.404s-44.275 37.667-72.759 43.476v47.787h-85.333v-46.507c-85.333-14.080-128-69.12-128-124.16 0-47.787 22.187-128 170.667-128 85.333 0 85.333-29.013 85.333-42.667s-26.453-42.667-85.333-42.667c-78.507 0-85.333 36.693-85.333 42.667h-85.333c0-39.253 28.16-108.8 128-124.587v-46.080h85.333v46.080c85.333 14.507 128 69.547 128 124.587 0 47.787-22.187 128-170.667 128z" />
<glyph unicode="&#xe91c;" glyph-name="edit" d="M298.667 234.112l188.288 0.64 410.965 407.039c16.128 16.128 25.003 37.547 25.003 60.331s-8.875 44.203-25.003 60.331l-67.669 67.669c-32.256 32.256-88.533 32.085-120.533 0.128l-411.051-407.124v-189.013zM769.92 769.791l67.797-67.541-68.139-67.499-67.669 67.627 68.011 67.413zM384 387.541l257.28 254.847 67.669-67.669-257.237-254.762-67.712-0.213v67.797zM213.333 64h597.333c47.061 0 85.333 38.272 85.333 85.333v369.835l-85.333-85.333v-284.501h-462.592c-1.109 0-2.261-0.427-3.371-0.427-1.408 0-2.816 0.384-4.267 0.427h-127.104v597.332h292.139l85.333 85.333h-377.472c-47.061 0-85.333-38.272-85.333-85.333v-597.332c0-47.061 38.272-85.333 85.333-85.333z" />
<glyph unicode="&#xe91d;" glyph-name="edit-alt" d="M812.587 644.224c16.128 16.128 25.003 37.547 25.003 60.331s-8.875 44.203-25.003 60.331l-67.669 67.669c-16.128 16.128-37.547 25.003-60.331 25.003s-44.203-8.875-60.288-24.96l-453.632-452.224v-188.373h188.288l453.632 452.224zM684.587 772.224l67.712-67.627-67.84-67.584-67.669 67.627 67.797 67.584zM256 277.333v67.627l300.373 299.435 67.669-67.669-300.331-299.392h-67.712zM170.667 106.667h682.667v-85.333h-682.667v85.333z" />
<glyph unicode="&#xe91e;" glyph-name="envelope" d="M853.333 789.333h-682.667c-47.061 0-85.333-38.272-85.333-85.333v-512c0-47.061 38.272-85.333 85.333-85.333h682.667c47.061 0 85.333 38.272 85.333 85.333v512c0 47.061-38.272 85.333-85.333 85.333zM853.333 704v-21.803l-341.333-265.515-341.333 265.472v21.845h682.667zM170.667 192v382.123l315.136-245.12c7.471-5.867 16.695-9.058 26.197-9.058s18.726 3.191 26.197 9.058l315.136 245.12 0.085-382.123h-682.752z" />
<glyph unicode="&#xe91f;" glyph-name="error-alt" d="M469.333 661.333h85.333v-298.667h-85.333v298.667zM469.333 320h85.333v-85.333h-85.333v85.333zM926.165 648.832l-213.333 213.333c-3.955 3.97-8.657 7.118-13.833 9.263-5.18 2.146-10.731 3.246-16.333 3.238h-341.333c-5.604 0.008-11.154-1.092-16.331-3.238s-9.879-5.294-13.834-9.263l-213.333-213.333c-3.97-3.956-7.118-8.657-9.263-13.834s-3.246-10.727-3.238-16.331v-341.333c0-11.349 4.48-22.187 12.501-30.165l213.333-213.333c3.956-3.968 8.657-7.117 13.834-9.263s10.727-3.247 16.331-3.238h341.333c11.349 0 22.187 4.48 30.165 12.501l213.333 213.333c3.968 3.955 7.117 8.657 9.263 13.833 2.146 5.18 3.247 10.731 3.238 16.333v341.333c0.009 5.604-1.092 11.154-3.238 16.331s-5.295 9.879-9.263 13.834zM853.333 294.997l-188.331-188.331h-306.005l-188.331 188.331v306.005l188.331 188.331h306.005l188.331-188.331v-306.005z" />
<glyph unicode="&#xe920;" glyph-name="file" d="M849.195 593.664c-2.022 4.631-4.855 8.864-8.363 12.501l-256 256c-3.639 3.508-7.872 6.34-12.501 8.363-1.28 0.597-2.645 0.939-4.011 1.408-3.571 1.215-7.287 1.947-11.051 2.176-0.896 0.085-1.707 0.555-2.603 0.555h-298.667c-47.061 0-85.333-38.272-85.333-85.333v-682.667c0-47.061 38.272-85.333 85.333-85.333h512c47.061 0 85.333 38.272 85.333 85.333v469.333c0 0.896-0.469 1.707-0.555 2.645-0.209 3.767-0.943 7.486-2.176 11.051-0.427 1.365-0.811 2.688-1.408 3.968zM707.669 618.667h-110.336v110.336l110.336-110.336zM256 106.667v682.667h256v-213.333c0-11.316 4.497-22.168 12.497-30.17s18.854-12.497 30.17-12.497h213.333l0.085-426.667h-512.085zM341.333 448h341.333v-85.333h-341.333v85.333zM341.333 277.333h341.333v-85.333h-341.333v85.333zM341.333 618.667h85.333v-85.333h-85.333v85.333z" />
<glyph unicode="&#xe921;" glyph-name="file-blank" d="M850.645 589.653c-0.469 1.365-0.853 2.688-1.408 4.011-2.022 4.631-4.855 8.864-8.363 12.501l-256 256c-3.635 3.508-7.872 6.34-12.501 8.363-1.28 0.597-2.645 0.939-4.011 1.408-3.571 1.215-7.287 1.947-11.051 2.176-0.939 0.085-1.749 0.555-2.645 0.555h-298.667c-47.061 0-85.333-38.272-85.333-85.333v-682.667c0-47.061 38.272-85.333 85.333-85.333h512c47.061 0 85.333 38.272 85.333 85.333v469.333c0 0.896-0.469 1.707-0.555 2.645-0.218 3.748-0.934 7.45-2.133 11.008zM707.669 618.667h-110.336v110.336l110.336-110.336zM256 106.667v682.667h256v-213.333c0-11.316 4.497-22.168 12.497-30.17s18.854-12.497 30.17-12.497h213.333l0.085-426.667h-512.085z" />
<glyph unicode="&#xe922;" glyph-name="file-blank-1" d="M850.645 589.653c-0.469 1.365-0.853 2.688-1.408 4.011-2.022 4.631-4.855 8.864-8.363 12.501l-256 256c-3.635 3.508-7.872 6.34-12.501 8.363-1.28 0.597-2.645 0.939-4.011 1.408-3.571 1.215-7.287 1.947-11.051 2.176-0.939 0.085-1.749 0.555-2.645 0.555h-298.667c-47.061 0-85.333-38.272-85.333-85.333v-682.667c0-47.061 38.272-85.333 85.333-85.333h512c47.061 0 85.333 38.272 85.333 85.333v469.333c0 0.896-0.469 1.707-0.555 2.645-0.218 3.748-0.934 7.45-2.133 11.008zM707.669 618.667h-110.336v110.336l110.336-110.336zM256 106.667v682.667h256v-213.333c0-11.316 4.497-22.168 12.497-30.17s18.854-12.497 30.17-12.497h213.333l0.085-426.667h-512.085z" />
<glyph unicode="&#xe923;" glyph-name="file-export" d="M848.205 593.302v172.805c-0.068 59.928-48.73 108.492-108.774 108.56h-453.176c-60.047-0.068-108.706-48.631-108.774-108.56v-29.024c-54.401-14.812-92.142-64.125-92.147-120.401v-470.544c0.073-68.89 56.006-124.719 125.032-124.804h603.267c69.026 0.085 124.962 55.91 125.035 124.8v327.232c0.017 55.637-36.881 104.564-90.462 119.936zM286.255 815.759h453.176c27.465-0.030 49.719-22.242 49.749-49.652v-167.94h-181.461l-42.662 78.177c-21.879 40.148-64.013 65.135-109.803 65.123h-218.749v24.64c0.032 27.408 22.287 49.62 49.75 49.652zM879.642 146.133c-0.038-36.369-29.568-65.847-66.010-65.89h-603.267c-36.442 0.043-65.97 29.521-66.007 65.89v470.547c-0.148 35.526 28.074 64.712 63.654 65.827l0.337 0.013c0.675 0.030 1.349 0.037 2.024 0.037h244.88c24.175 0.005 46.413-13.188 57.963-34.385l51.051-93.547c5.167-9.472 15.113-15.366 25.916-15.366h223.454c1.114 0 2.283-0.032 3.524-0.095 35.051-1.841 62.519-30.764 62.481-65.798v-327.232zM622.34 682.557h95.164c16.299 0 29.513 13.187 29.513 29.455s-13.214 29.455-29.513 29.455h-95.164c-16.299 0-29.513-13.187-29.513-29.455s13.214-29.455 29.513-29.455zM749.282 420.621c-11.614 11.413-30.302 11.264-41.737-0.324-11.311-11.465-11.311-29.867 0-41.331l39.906-39.825h-99.029c-16.299 0-29.513-13.188-29.513-29.457s13.214-29.453 29.513-29.453h99.021l-39.906-39.829c-11.524-11.503-11.52-30.157 0.004-41.66 11.529-11.499 30.217-11.499 41.741 0.004l90.287 90.112c11.524 11.499 11.524 30.153 0 41.651l-90.287 90.112z" />
<glyph unicode="&#xe924;" glyph-name="file-find" d="M584.832 862.165c-3.955 3.97-8.657 7.118-13.833 9.263-5.18 2.146-10.731 3.246-16.333 3.238h-298.667c-47.061 0-85.333-38.272-85.333-85.333v-682.667c0-47.061 38.272-85.333 85.333-85.333h512c47.061 0 85.333 38.272 85.333 85.333v469.333c0.009 5.604-1.092 11.154-3.238 16.331s-5.295 9.879-9.263 13.834l-256 256zM256 789.333h281.003l230.997-230.997 0.085-391.424-109.568 109.568c14.933 25.387 24.149 54.656 24.149 86.187 0 94.123-76.544 170.667-170.667 170.667s-170.667-76.544-170.667-170.667c0-94.123 76.544-170.667 170.667-170.667 31.531 0 60.8 9.216 86.187 24.149l109.483-109.483h-451.669v682.667zM512 277.333c-47.061 0-85.333 38.272-85.333 85.333s38.272 85.333 85.333 85.333c47.061 0 85.333-38.272 85.333-85.333s-38.272-85.333-85.333-85.333z" />
<glyph unicode="&#xe925;" glyph-name="file-import" d="M848.205 593.302v172.805c-0.068 59.928-48.73 108.492-108.774 108.56h-453.176c-60.047-0.068-108.706-48.631-108.774-108.56v-29.024c-54.401-14.812-92.142-64.125-92.147-120.401v-470.544c0.073-68.89 56.006-124.719 125.032-124.804h603.267c69.026 0.085 124.962 55.91 125.035 124.8v327.232c0.017 55.637-36.881 104.564-90.462 119.936zM286.255 815.759h453.176c27.465-0.030 49.719-22.242 49.749-49.652v-167.94h-181.461l-42.662 78.177c-21.879 40.148-64.013 65.135-109.803 65.123h-218.749v24.64c0.032 27.408 22.287 49.62 49.75 49.652zM879.642 146.133c-0.038-36.369-29.568-65.847-66.010-65.89h-603.267c-36.442 0.043-65.97 29.521-66.007 65.89v470.547c-0.148 35.526 28.074 64.712 63.654 65.827l0.337 0.013c0.675 0.030 1.349 0.037 2.024 0.037h244.88c24.175 0.005 46.413-13.188 57.963-34.385l51.051-93.547c5.167-9.472 15.113-15.366 25.916-15.366h223.454c1.114 0 2.283-0.032 3.524-0.095 35.051-1.841 62.519-30.764 62.481-65.798v-327.232zM622.34 682.557h95.164c16.299 0 29.513 13.187 29.513 29.455s-13.214 29.455-29.513 29.455h-95.164c-16.299 0-29.513-13.187-29.513-29.455s13.214-29.455 29.513-29.455zM717.841 420.621c11.614 11.413 30.298 11.264 41.732-0.324 11.311-11.465 11.311-29.867 0-41.331l-39.906-39.825h99.029c16.299 0 29.513-13.188 29.513-29.457s-13.21-29.453-29.513-29.453h-99.021l39.906-39.829c11.524-11.503 11.524-30.157-0.004-41.66-11.524-11.499-30.212-11.499-41.737 0.004l-90.287 90.112c-11.524 11.499-11.524 30.153 0 41.651l90.287 90.112z" />
<glyph unicode="&#xe926;" glyph-name="file-plus" d="M841.357 659.836c-7.113 15.345-16.469 29.193-28.446 41.169l-130.991 130.994c-27.324 27.322-64 42.292-102.925 42.667h-262.364c-38.924 0-75.602-15.345-103.298-43.041-27.322-27.322-42.667-64-42.667-102.924v-561.402c0-38.925 15.345-75.605 42.667-103.3 27.696-27.695 64.374-42.667 103.298-42.667h392.983c38.925 0 75.601 14.972 103.296 42.667 27.324 27.695 42.667 64.375 42.667 103.3v430.781c0 21.333-4.864 42.292-14.221 61.754zM653.474 773.24l100.676-100.678h-72.606c-7.488 0-14.596 2.994-19.836 8.234s-8.235 12.351-8.235 19.836v72.608zM788.211 167.3c0-20.962-8.235-40.798-22.831-55.77-14.972-14.596-34.807-22.831-55.765-22.831h-392.983c-20.959 0-40.795 8.235-55.766 22.831-14.597 14.972-22.831 34.807-22.831 55.77v561.402c0 20.959 8.234 40.795 22.831 55.392 14.97 14.971 34.807 23.205 55.766 23.205h262.364c4.117 0 8.606-0.374 12.723-1.123v-105.544c0-23.953 9.357-46.784 26.202-63.626 16.841-16.842 40.047-26.199 63.625-26.199h105.545c0.747-4.491 1.122-8.608 1.122-13.1v-430.407zM659.089 419.93c0-8.981-3.371-17.591-9.732-23.953s-14.972-9.732-23.953-9.732h-78.596v-78.596c0-8.981-3.371-17.591-9.732-23.953s-14.972-9.728-23.953-9.728c-8.981 0-17.591 3.366-23.953 9.728s-9.732 14.972-9.732 23.953v78.596h-78.595c-8.983 0-17.591 3.371-23.953 9.732s-9.731 14.972-9.731 23.953c0 8.981 3.743 17.591 9.731 23.578 6.363 6.366 14.971 10.108 23.953 10.108h78.595v78.596c0 8.982 3.746 17.59 9.732 23.578 12.727 12.725 35.183 12.725 47.906 0 5.99-5.988 9.732-14.596 9.732-23.578v-78.596h78.596c8.981 0 17.591-3.742 23.953-10.108 5.986-5.986 9.732-14.596 9.732-23.578z" />
<glyph unicode="&#xe927;" glyph-name="filter-alt" d="M896 832h-682.667c-11.316 0-22.168-4.495-30.17-12.497s-12.497-18.854-12.497-30.17v-110.507c0-22.315 9.088-44.245 24.875-60.032l231.125-231.125v-323.669c0.009-7.27 1.873-14.417 5.414-20.766 3.541-6.345 8.644-11.682 14.827-15.509 6.182-3.823 13.239-6.003 20.501-6.34 7.262-0.333 14.49 1.19 20.996 4.429l170.667 85.333c14.464 7.253 23.595 22.016 23.595 38.187v238.336l231.125 231.125c15.787 15.787 24.875 37.717 24.875 60.032v110.507c0 11.316-4.497 22.168-12.497 30.17s-18.854 12.497-30.17 12.497zM609.835 435.499c-3.968-3.955-7.117-8.657-9.263-13.833-2.146-5.18-3.247-10.731-3.238-16.333v-229.632l-85.333-42.667v272.299c0.009 5.602-1.092 11.153-3.238 16.333-2.146 5.175-5.295 9.877-9.263 13.833l-243.499 243.328v67.84h597.376l0.085-67.541-243.627-243.627z" />
<glyph unicode="&#xe928;" glyph-name="folder" d="M853.333 746.667h-366.336l-72.832 72.832c-3.957 3.968-8.659 7.115-13.836 9.26s-10.726 3.247-16.33 3.241h-213.333c-47.061 0-85.333-38.272-85.333-85.333v-597.333c0-47.061 38.272-85.333 85.333-85.333h682.667c47.061 0 85.333 38.272 85.333 85.333v512c0 47.061-38.272 85.333-85.333 85.333zM170.667 149.333v512h682.667l0.085-512h-682.752z" />
<glyph unicode="&#xe929;" glyph-name="folder-1" d="M853.333 746.667h-366.336l-72.832 72.832c-3.957 3.968-8.659 7.115-13.836 9.26s-10.726 3.247-16.33 3.241h-213.333c-47.061 0-85.333-38.272-85.333-85.333v-597.333c0-47.061 38.272-85.333 85.333-85.333h682.667c47.061 0 85.333 38.272 85.333 85.333v512c0 47.061-38.272 85.333-85.333 85.333zM170.667 149.333v512h682.667l0.085-512h-682.752z" />
<glyph unicode="&#xe92a;" glyph-name="help-circle" d="M512 704c-44.501-0.056-87.16-17.759-118.626-49.225s-49.168-74.127-49.225-118.626h85.333c0 45.525 37.035 82.517 82.517 82.517s82.517-36.992 82.517-82.517c0-25.515-20.523-44.032-51.883-69.376-10.244-8.026-20.083-16.555-29.483-25.557-42.581-42.539-43.819-87.723-43.819-92.757v-28.459h85.333l-0.043 27.008c0.043 0.683 1.408 16.469 18.816 33.835 6.4 6.4 14.464 12.8 22.827 19.541 33.237 26.923 83.541 67.584 83.541 135.765-0.034 44.499-17.724 87.166-49.186 118.636-31.458 31.47-74.125 49.169-118.622 49.215zM469.333 277.333h85.333v-85.333h-85.333v85.333zM512 874.667c-235.264 0-426.667-191.403-426.667-426.667s191.403-426.667 426.667-426.667c235.264 0 426.667 191.403 426.667 426.667s-191.403 426.667-426.667 426.667zM512 106.667c-188.203 0-341.333 153.131-341.333 341.333s153.131 341.333 341.333 341.333c188.203 0 341.333-153.131 341.333-341.333s-153.131-341.333-341.333-341.333z" />
<glyph unicode="&#xe92b;" glyph-name="hide" d="M512 149.333c40.363 0 77.227 4.395 110.848 11.989l-74.965 74.965c-11.648-0.896-23.467-1.621-35.883-1.621-228.31 0-316.758 164.096-338.177 213.333 16.083 35.891 37.805 68.975 64.341 98.004l-59.648 59.648c-65.621-71.125-90.496-142.761-90.965-144.169-2.943-8.764-2.943-18.249 0-27.008 0.896-2.816 98.773-285.141 424.449-285.141zM512 746.665c-78.379 0-142.764-16.896-196.438-41.856l-157.397 157.355-60.331-60.331 768.001-767.999 60.331 60.331-141.611 141.611c111.531 83.243 151.339 196.907 151.936 198.699 2.944 8.759 2.944 18.244 0 27.008-0.939 2.859-98.816 285.183-424.491 285.183zM724.139 296.192l-97.28 97.28c8.107 16.64 13.141 34.944 13.141 54.528 0 70.016-57.984 127.999-128 127.999-19.584 0-37.888-5.035-54.485-13.184l-77.142 77.141c42.348 14.532 86.857 21.76 131.628 21.376 228.309 0 316.757-164.095 338.176-213.332-12.885-29.525-49.749-99.925-126.037-151.808z" />
<glyph unicode="&#xe92c;" glyph-name="home" d="M127.999 405.333h42.667v-298.667c0-47.061 38.272-85.333 85.333-85.333h512.001c47.061 0 85.333 38.272 85.333 85.333v298.667h42.667c8.435 0.004 16.683 2.505 23.697 7.194s12.484 11.354 15.71 19.149c3.23 7.795 4.075 16.371 2.432 24.644-1.647 8.277-5.709 15.881-11.674 21.845l-384 384c-3.959 3.966-8.661 7.112-13.837 9.259-5.18 2.147-10.726 3.251-16.329 3.251-5.606 0-11.153-1.105-16.329-3.251s-9.877-5.293-13.837-9.259l-384.001-384c-5.965-5.965-10.028-13.568-11.673-21.845-1.646-8.273-0.801-16.849 2.428-24.644s8.696-14.46 15.711-19.149c7.015-4.689 15.262-7.189 23.7-7.194zM426.665 106.667v213.333h170.668v-213.333h-170.668zM512 771.67l256-256v-195.669l0.043-213.333h-85.376v213.333c0 47.061-38.272 85.333-85.333 85.333h-170.668c-47.061 0-85.333-38.272-85.333-85.333v-213.333h-85.333v409.003l256.001 256z" />
<glyph unicode="&#xe92d;" glyph-name="home-alt" d="M213.333 21.333h597.333c22.63 0 44.335 8.99 60.339 24.994s24.994 37.709 24.994 60.339v384c0.034 5.615-1.045 11.183-3.166 16.38-2.125 5.197-5.252 9.929-9.207 13.914l-341.333 341.333c-7.996 7.947-18.807 12.407-30.080 12.407s-22.084-4.46-30.080-12.407l-341.333-341.333c-4.032-3.951-7.239-8.666-9.436-13.862-2.197-5.201-3.341-10.786-3.364-16.431v-384c0-22.63 8.99-44.335 24.994-60.339s37.708-24.994 60.34-24.994zM426.667 106.667v213.333h170.667v-213.333h-170.667zM213.333 473.173l298.667 298.667 298.667-298.667v-366.507h-128v213.333c0 22.63-8.99 44.335-24.994 60.339s-37.709 24.994-60.339 24.994h-170.667c-22.632 0-44.337-8.99-60.34-24.994s-24.994-37.709-24.994-60.339v-213.333h-128v366.507z" />
<glyph unicode="&#xe92e;" glyph-name="image" d="M319.958 490.667c35.346 0 64 28.655 64 64 0 35.346-28.654 64-64 64s-64-28.654-64-64c0-35.345 28.654-64 64-64zM447.957 362.667l-63.999 85.333-128-170.667h511.999l-192 256-128-170.667zM853.291 789.333h-682.666c-47.061 0-85.333-38.272-85.333-85.333v-512c0-47.061 38.272-85.333 85.333-85.333h682.666c47.061 0 85.333 38.272 85.333 85.333v512c0 47.061-38.272 85.333-85.333 85.333zM170.625 192v512h682.666l0.085-512h-682.751z" />
<glyph unicode="&#xe92f;" glyph-name="images" d="M853.333 874.667h-512c-47.061 0-85.333-38.272-85.333-85.333v-512c0-47.061 38.272-85.333 85.333-85.333h512c47.061 0 85.333 38.272 85.333 85.333v512c0 47.061-38.272 85.333-85.333 85.333zM341.333 277.333v512h512l0.085-512h-512.085zM170.667 618.667h-85.333v-512c0-47.061 38.272-85.333 85.333-85.333h512v85.333h-512v512zM512 448l-42.667 42.667-85.333-128h426.667l-170.667 256-128-170.667z" />
<glyph unicode="&#xe930;" glyph-name="info-circle" d="M512 874.667c-235.264 0-426.667-191.403-426.667-426.667s191.403-426.667 426.667-426.667c235.264 0 426.667 191.403 426.667 426.667s-191.403 426.667-426.667 426.667zM512 106.667c-188.203 0-341.333 153.131-341.333 341.333s153.131 341.333 341.333 341.333c188.203 0 341.333-153.131 341.333-341.333s-153.131-341.333-341.333-341.333zM469.333 490.667h85.333v-256h-85.333v256zM469.333 661.333h85.333v-85.333h-85.333v85.333z" />
<glyph unicode="&#xe931;" glyph-name="info-square" d="M853.333 832h-682.667c-11.316 0-22.168-4.495-30.17-12.497s-12.497-18.854-12.497-30.17v-682.667c0-11.315 4.495-22.17 12.497-30.17s18.854-12.497 30.17-12.497h682.667c11.315 0 22.17 4.497 30.17 12.497s12.497 18.854 12.497 30.17v682.667c0 11.316-4.497 22.168-12.497 30.17s-18.854 12.497-30.17 12.497zM810.667 149.333h-597.333v597.333h597.333v-597.333zM469.333 661.333h85.333v-85.333h-85.333v85.333zM469.333 490.667h85.333v-256h-85.333v256z" />
<glyph unicode="&#xe932;" glyph-name="layer" d="M938.667 618.71c-0.009 7.615-2.052 15.089-5.926 21.646-3.87 6.557-9.425 11.959-16.090 15.645l-384.939 213.333c-6.323 3.485-13.427 5.312-20.651 5.312-7.219 0-14.327-1.827-20.651-5.312l-383.061-211.627c-6.654-3.685-12.203-9.082-16.070-15.632s-5.914-14.015-5.927-21.621c-0.013-7.607 2.007-15.078 5.853-21.642s9.375-11.979 16.017-15.686l384.939-215.040c6.336-3.558 13.483-5.436 20.753-5.44 7.266-0.009 14.417 1.852 20.762 5.397l383.061 213.334c6.656 3.7 12.198 9.113 16.051 15.678 3.857 6.565 5.888 14.042 5.879 21.655zM512.981 454.229l-297.088 165.931 295.125 163.072 297.131-164.651-295.168-164.352zM875.307 485.291l-363.307-201.813-363.307 201.813-41.429-74.581 384-213.333c6.336-3.52 13.466-5.367 20.715-5.367s14.379 1.847 20.715 5.367l384 213.333-41.387 74.581zM875.307 314.624l-363.307-201.813-363.307 201.813-41.429-74.581 384-213.333c6.336-3.52 13.466-5.367 20.715-5.367s14.379 1.847 20.715 5.367l384 213.333-41.387 74.581z" />
<glyph unicode="&#xe933;" glyph-name="line-chart" d="M128 832v-725.333c0-11.315 4.495-22.17 12.497-30.17s18.854-12.497 30.17-12.497h725.333v85.333h-682.667v682.667h-85.333zM652.501 332.501c3.959-3.964 8.661-7.113 13.837-9.259s10.726-3.251 16.329-3.251c5.602 0 11.153 1.105 16.329 3.251s9.877 5.295 13.837 9.259l213.333 213.333-60.331 60.331-183.168-183.168-97.835 97.835c-3.959 3.964-8.661 7.113-13.837 9.259s-10.726 3.251-16.329 3.251c-5.602 0-11.153-1.105-16.329-3.251s-9.877-5.295-13.837-9.259l-213.333-213.333 60.331-60.331 183.168 183.168 97.835-97.835z" />
<glyph unicode="&#xe934;" glyph-name="link" d="M361.174 478.165c48.341 48.341 132.65 48.341 180.991 0l30.165-30.165 60.331 60.331-30.165 30.166c-40.235 40.277-93.824 62.507-150.827 62.507s-110.591-22.229-150.826-62.507l-90.539-90.496c-39.923-40.051-62.341-94.298-62.341-150.848s22.418-110.797 62.341-150.848c19.792-19.819 43.305-35.533 69.189-46.238s53.628-16.192 81.638-16.141c28.017-0.060 55.77 5.423 81.663 16.128 25.89 10.705 49.412 26.423 69.205 46.251l30.165 30.165-60.331 60.331-30.165-30.165c-24.043-23.936-56.589-37.376-90.516-37.376s-66.473 13.44-90.517 37.376c-23.957 24.034-37.41 56.585-37.41 90.517s13.453 66.483 37.41 90.517l90.539 90.496zM512 749.696l-30.165-30.165 60.331-60.331 30.165 30.165c24.047 23.936 56.593 37.375 90.517 37.375 33.929 0 66.475-13.438 90.517-37.375 23.957-24.033 37.41-56.583 37.41-90.517s-13.453-66.484-37.41-90.518l-90.539-90.496c-48.341-48.341-132.651-48.341-180.992 0l-30.165 30.165-60.33-60.331 30.165-30.165c40.234-40.277 93.823-62.507 150.826-62.507s110.592 22.229 150.827 62.507l90.539 90.496c39.923 40.051 62.345 94.297 62.345 150.848s-22.421 110.796-62.345 150.848c-40.038 39.944-94.289 62.377-150.848 62.377s-110.805-22.432-150.848-62.377z" />
<glyph unicode="&#xe935;" glyph-name="list-link" d="M444.587 334.507c2.56 1.28 4.693 2.987 7.253 4.693-1.707-2.56-3.413-4.693-4.693-7.253l-2.56 2.56zM481.707 367.36c-2.56-1.28-4.693-2.987-6.827-4.693 1.707 2.133 3.413 4.267 4.693 6.827l2.133-2.133zM928.427 702.294l-162.133 162.133c0 0-3.413 3.413-5.547 4.693-3.84 2.56-8.107 4.267-12.8 5.12-2.133 0-4.693 0.853-6.827 0.853h-522.667c-19.627 0-35.413-15.787-35.413-35.413v-159.573h-62.293c-19.627 0-35.413-15.787-35.413-35.413v-587.947c0-19.627 15.787-35.413 35.413-35.413h685.227c19.627 0 35.413 15.787 35.413 35.413v159.573h61.867c19.627 0 35.413 15.787 35.413 35.413v424.96c0 9.387-3.84 18.773-10.24 25.173v0.427zM817.92 712.107h-41.387v41.387l41.387-41.387zM156.16 92.16v517.12h452.267v-126.72c0-19.627 15.787-35.413 35.413-35.413h127.147v-354.987h-614.827zM678.827 517.547v41.387l41.387-41.387h-41.387zM867.84 287.147h-26.453v195.413c0 0 0 4.693-0.853 6.827-0.853 4.693-2.56 8.96-5.12 12.8-1.707 2.133-2.987 3.84-4.693 5.547l-162.56 162.134c-6.827 7.253-15.787 10.24-24.747 10.24h-389.547v123.733h452.267v-127.147c0-19.2 15.787-34.987 35.413-34.987h126.72v-354.987l-0.427 0.427zM646.827 313.173l-38.4 38.827c-34.56 34.56-87.040 39.68-126.72 15.36-2.56-1.28-4.693-2.987-6.827-4.693 1.707 2.133 3.413 4.267 4.693 6.827 23.893 40.107 19.2 92.16-15.36 126.293l-38.827 38.827c-19.2 19.627-46.080 29.013-72.533 29.013s-53.76-9.387-72.96-29.013c-19.627-19.627-30.293-45.227-30.293-72.96s10.667-53.76 30.293-72.533l38.4-38.827c20.48-20.053 46.507-30.293 72.96-30.293 18.773 0 37.12 5.12 53.333 14.933 2.56 1.28 4.693 2.987 7.253 4.693-1.707-2.56-3.413-4.693-4.693-7.253-24.32-40.107-18.773-92.16 15.36-126.293l38.827-38.4c19.627-19.627 45.227-30.293 72.533-30.293s53.76 10.667 72.96 30.293c19.627 19.627 30.293 45.227 30.293 72.533s-10.667 53.76-30.293 72.96zM368.213 399.787l-38.827 38.827c-6.4 6.4-9.387 14.507-9.387 23.040s3.413 16.64 9.387 23.467c6.4 6.4 14.507 9.387 23.467 9.387s16.64-3.413 23.040-9.387l38.827-38.827c5.547-5.547 8.533-12.8 9.387-20.48l-5.547 5.547c-9.813 9.387-25.6 9.387-35.413 0s-9.813-25.173 0-35.413l5.12-5.12c-7.68 0.853-14.507 3.84-20.053 8.96zM596.907 217.173c-12.8-12.8-33.28-12.8-46.080 0l-38.827 38.4c-5.547 5.547-8.107 12.8-8.533 20.053l4.693-4.693c5.12-5.12 11.52-7.68 17.92-7.68s12.8 2.56 17.493 7.68c9.813 9.387 9.813 25.173 0 34.987l-5.547 5.547c7.68 0 14.933-3.84 20.907-9.387l38.4-38.4c12.8-12.8 12.8-33.28 0-46.080l-0.427-0.427z" />
<glyph unicode="&#xe936;" glyph-name="list-ul" d="M170.667 704h85.333v-85.333h-85.333v85.333zM170.667 490.667h85.333v-85.333h-85.333v85.333zM170.667 277.333h85.333v-85.333h-85.333v85.333zM853.333 618.667v85.333h-511.019v-85.333h511.019zM341.333 490.667h512v-85.333h-512v85.333zM341.333 277.333h512v-85.333h-512v85.333z" />
<glyph unicode="&#xe937;" glyph-name="log-out" d="M682.667 405.333v85.333h-384v128l-213.333-170.667 213.333-170.667v128h384zM853.333 832h-384c-47.061 0-85.333-38.272-85.333-85.333v-170.667h85.333v170.667h384v-597.333h-384v170.667h-85.333v-170.667c0-47.061 38.272-85.333 85.333-85.333h384c47.061 0 85.333 38.272 85.333 85.333v597.333c0 47.061-38.272 85.333-85.333 85.333z" />
<glyph unicode="&#xe938;" glyph-name="map" d="M512 362.667c94.123 0 170.667 76.544 170.667 170.667s-76.544 170.667-170.667 170.667c-94.121 0-170.665-76.544-170.665-170.667s76.544-170.667 170.665-170.667zM512 618.667c47.061 0 85.333-38.272 85.333-85.333s-38.272-85.333-85.333-85.333c-47.061 0-85.333 38.272-85.333 85.333s38.272 85.333 85.333 85.333zM487.253 29.269c7.223-5.158 15.876-7.927 24.747-7.927 8.875 0 17.527 2.769 24.747 7.927 12.971 9.173 317.824 229.291 316.587 504.064 0 188.203-153.131 341.333-341.333 341.333s-341.332-153.131-341.332-341.12c-1.237-274.987 303.615-495.104 316.585-504.277zM512 789.333c141.184 0 256-114.816 256-256.213 0.896-189.355-187.221-359.381-256-415.147-68.736 55.808-256.895 225.877-255.999 415.36 0 141.184 114.816 256 255.999 256z" />
<glyph unicode="&#xe939;" glyph-name="menu-alt-left" d="M170.667 490.667h512v-85.333h-512v85.333zM170.667 704h682.667v-85.333h-682.667v85.333zM170.667 192h308.693v85.333h-308.693v-85.333z" />
<glyph unicode="&#xe93a;" glyph-name="message-square-edit" d="M682.667 874.667h-341.333c-141.184 0-256-114.816-256-256v-554.667c0-11.315 4.495-22.17 12.497-30.17s18.854-12.497 30.17-12.497h554.667c141.184 0 256 114.816 256 256v341.333c0 141.184-114.816 256-256 256zM853.333 277.333c0-94.123-76.544-170.667-170.667-170.667h-512v512c0 94.123 76.544 170.667 170.667 170.667h341.333c94.123 0 170.667-76.544 170.667-170.667v-341.333zM298.667 320.555v-85.291h85.291l235.904 235.605-85.248 85.248-235.947-235.563zM660.053 511.061l-85.248 85.333 64.981 64.939 85.333-85.291-65.067-64.981z" />
<glyph unicode="&#xe93b;" glyph-name="microchip" d="M682.667 874.667h-341.333c-47.061 0-85.333-38.272-85.333-85.333v-682.667c0-47.061 38.272-85.333 85.333-85.333h341.333c47.061 0 85.333 38.272 85.333 85.333v682.667c0 47.061-38.272 85.333-85.333 85.333zM341.333 106.667v682.667h341.333l0.043-682.667h-341.376zM128 661.333h85.333v85.333h-85.333v-21.333h-42.667v-42.667h42.667v-21.333zM896 746.667h-85.333v-85.333h85.333v21.333h42.667v42.667h-42.667v21.333zM128 490.667h85.333v85.333h-85.333v-21.333h-42.667v-42.667h42.667v-21.333zM896 576h-85.333v-85.333h85.333v21.333h42.667v42.667h-42.667v21.333zM128 320h85.333v85.333h-85.333v-21.333h-42.667v-42.667h42.667v-21.333zM896 405.333h-85.333v-85.333h85.333v21.333h42.667v42.667h-42.667v21.333zM128 149.333h85.333v85.333h-85.333v-21.333h-42.667v-42.667h42.667v-21.333zM896 234.667h-85.333v-85.333h85.333v21.333h42.667v42.667h-42.667v21.333z" />
<glyph unicode="&#xe93c;" glyph-name="minus-circle" d="M298.667 490.667h426.667v-85.333h-426.667v85.333zM512 874.667c-235.264 0-426.667-191.403-426.667-426.667s191.403-426.667 426.667-426.667c235.264 0 426.667 191.403 426.667 426.667s-191.403 426.667-426.667 426.667zM512 106.667c-188.203 0-341.333 153.131-341.333 341.333s153.131 341.333 341.333 341.333c188.203 0 341.333-153.131 341.333-341.333s-153.131-341.333-341.333-341.333z" />
<glyph unicode="&#xe93d;" glyph-name="money" d="M896 789.333h-768c-11.316 0-22.168-4.495-30.17-12.497s-12.497-18.854-12.497-30.17v-597.333c0-11.315 4.495-22.17 12.497-30.17s18.854-12.497 30.17-12.497h768c11.315 0 22.17 4.497 30.17 12.497s12.497 18.854 12.497 30.17v597.333c0 11.316-4.497 22.168-12.497 30.17s-18.854 12.497-30.17 12.497zM853.333 320c-33.946 0-66.505-13.487-90.509-37.491s-37.491-56.563-37.491-90.509h-426.667c0 33.946-13.486 66.505-37.49 90.509s-56.562 37.491-90.51 37.491v256c33.948 0 66.505 13.486 90.51 37.49s37.49 56.562 37.49 90.51h426.667c0-33.948 13.487-66.505 37.491-90.51s56.563-37.49 90.509-37.49v-256zM512 618.667c-94.123 0-170.667-76.544-170.667-170.667s76.544-170.667 170.667-170.667c94.123 0 170.667 76.544 170.667 170.667s-76.544 170.667-170.667 170.667zM512 362.667c-47.061 0-85.333 38.272-85.333 85.333s38.272 85.333 85.333 85.333c47.061 0 85.333-38.272 85.333-85.333s-38.272-85.333-85.333-85.333z" />
<glyph unicode="&#xe93e;" glyph-name="network-chart" d="M810.667 832c-70.571 0-128-57.429-128-128 0-21.419 5.803-41.301 15.104-59.093l-47.616-55.552c-28.164 19.132-61.44 29.346-95.488 29.312-31.531 0-60.8-9.216-86.187-24.149l-60.331 60.331c11.985 21.571 18.352 45.809 18.517 70.485 0 82.347-66.987 149.333-149.333 149.333s-149.333-66.987-149.333-149.333c0-82.347 66.987-149.333 149.333-149.333 25.643 0 49.408 7.083 70.485 18.517l60.331-60.331c-15.628-26.044-23.968-55.812-24.149-86.187 0-42.539 16.213-81.024 42.027-110.976l-72.192-72.192 1.067-1.067c-17.444 8.811-36.693 13.453-56.235 13.568-70.571 0-128-57.429-128-128s57.429-128 128-128c70.571 0 128 57.429 128 128 0 20.309-5.163 39.211-13.568 56.235l1.067-1.067 83.371 83.371c17.963-6.4 36.992-10.539 57.131-10.539 94.123 0 170.667 76.544 170.667 170.667-0.183 26.505-6.601 52.595-18.731 76.16l53.461 62.379c15.531-6.741 32.597-10.539 50.603-10.539 70.571 0 128 57.429 128 128s-57.429 128-128 128zM298.667 106.667c-11.316 0-22.168 4.497-30.17 12.497s-12.497 18.854-12.497 30.17c0 11.315 4.495 22.17 12.497 30.17s18.854 12.497 30.17 12.497c11.316 0 22.168-4.497 30.17-12.497s12.497-18.854 12.497-30.17c0-11.315-4.495-22.17-12.497-30.17s-18.854-12.497-30.17-12.497zM213.333 725.333c0 35.285 28.715 64 64 64s64-28.715 64-64c0-35.285-28.715-64-64-64s-64 28.715-64 64zM554.667 362.667c-47.061 0-85.333 38.272-85.333 85.333s38.272 85.333 85.333 85.333c47.061 0 85.333-38.272 85.333-85.333s-38.272-85.333-85.333-85.333zM810.667 661.333c-11.315 0-22.17 4.495-30.17 12.497s-12.497 18.854-12.497 30.17c0 11.316 4.497 22.168 12.497 30.17s18.854 12.497 30.17 12.497c11.315 0 22.17-4.495 30.17-12.497s12.497-18.854 12.497-30.17c0-11.316-4.497-22.168-12.497-30.17s-18.854-12.497-30.17-12.497z" />
<glyph unicode="&#xe93f;" glyph-name="news" d="M848 832h-672c-50.005 0-90.667-38.272-90.667-85.333v-597.333c0-47.061 40.661-85.333 90.667-85.333h672c50.005 0 90.667 38.272 90.667 85.333v597.333c0 47.061-40.661 85.333-90.667 85.333zM848 149.333h-672c-2.432 0-4.096 0.683-4.821 0.683-0.299 0-0.469-0.085-0.512-0.341l-0.512 595.029c0.299 0.427 2.219 1.963 5.845 1.963h672c3.371-0.043 5.205-1.195 5.333-0.341l0.512-595.029c-0.299-0.427-2.219-1.963-5.845-1.963zM256 661.333h256v-256h-256v256zM256 320v-85.333h512v85.333h-512zM597.333 490.667h170.667v-85.333h-170.667v85.333zM597.333 661.333h170.667v-85.333h-170.667v85.333z" />
<glyph unicode="&#xe940;" glyph-name="notepad" d="M810.667 789.333h-128v85.333h-85.333v-85.333h-170.667v85.333h-85.333v-85.333h-128c-47.061 0-85.333-38.272-85.333-85.333v-597.333c0-47.061 38.272-85.333 85.333-85.333h597.333c47.061 0 85.333 38.272 85.333 85.333v597.333c0 47.061-38.272 85.333-85.333 85.333zM213.333 106.667v554.667h597.333v42.667l0.085-597.333h-597.419zM298.667 576h426.667v-85.333h-426.667v85.333zM298.667 405.333h213.333v-85.333h-213.333v85.333z" />
<glyph unicode="&#xe941;" glyph-name="package" d="M938.667 618.667c0.414 2.972 0.414 5.987 0 8.96v3.413c-0.734 2.381-1.737 4.672-2.987 6.827-0.555 1.229-1.271 2.377-2.133 3.413l-4.267 5.547-8.533 6.4-384 213.333c-6.485 3.744-13.845 5.716-21.333 5.716s-14.848-1.972-21.333-5.716l-384-213.333-3.84-2.987-4.693-3.413c-1.239-1.395-2.248-2.98-2.987-4.693-1.365-1.225-2.519-2.666-3.413-4.267-1.108-1.872-1.968-3.88-2.56-5.973-0.239-1.412-0.239-2.855 0-4.267-2.933-2.53-5.39-5.564-7.253-8.96v-341.333c0.055-7.603 2.141-15.053 6.042-21.581 3.901-6.524 9.475-11.891 16.145-15.539l384-213.333c1.762-1.028 3.622-1.886 5.547-2.56h4.267c7.010-1.702 14.323-1.702 21.333 0h4.267l5.973 2.56 384 213.333c6.592 3.703 12.079 9.092 15.902 15.616s5.845 13.943 5.858 21.504v341.333zM512 453.547l-296.107 165.12 117.76 64.853 291.413-166.4-113.067-63.573zM512 782.933l296.107-164.267-95.573-53.333-291.413 166.827 90.88 50.773zM170.667 546.133l298.667-167.253v-242.347l-298.667 165.973v243.627zM554.667 136.533v242.347l128 71.68v-130.56l85.333 42.667v135.68l85.333 47.36v-243.2l-298.667-165.973z" />
<glyph unicode="&#xe942;" glyph-name="paperclip" d="M725.504 746.667h-341.504c-78.421 0-153.003-31.445-210.091-88.576-57.131-57.131-88.576-131.712-88.576-210.091 0-78.421 31.445-153.003 88.576-210.091 57.088-57.131 131.669-88.576 210.091-88.576h341.333v85.333h-341.333c-55.595 0-108.8 22.571-149.76 63.573-41.003 40.96-63.573 94.165-63.573 149.76 0 55.552 22.571 108.757 63.573 149.76 40.96 41.003 94.165 63.573 149.76 63.573h341.504c33.707 0 65.664-13.397 89.984-37.803 24.363-24.363 37.803-56.405 37.845-90.283-0.013-16.755-3.354-33.344-9.83-48.798-6.473-15.454-15.953-29.466-27.887-41.229-11.81-11.955-25.865-21.453-41.361-27.955-15.492-6.502-32.119-9.877-48.922-9.933h-341.333c-5.562 0.068-11.057 1.233-16.167 3.43s-9.737 5.38-13.614 9.37c-4.013 3.883-7.218 8.521-9.43 13.645s-3.386 10.641-3.456 16.222c0 10.752 4.693 21.632 12.843 29.781 3.87 4.015 8.5 7.223 13.619 9.434 5.12 2.214 10.628 3.388 16.205 3.452h341.333v85.333h-341.333c-33.707 0-65.749-13.44-90.197-37.931-24.405-24.405-37.803-56.405-37.803-90.069s13.397-65.707 37.888-90.197c11.776-11.942 25.804-21.436 41.271-27.925 15.468-6.485 32.068-9.843 48.841-9.877h341.376c27.998 0.021 55.714 5.585 81.549 16.371s49.28 26.581 68.979 46.477c19.874 19.703 35.644 43.153 46.409 68.988 10.761 25.83 16.303 53.542 16.299 81.528s-5.551 55.695-16.324 81.525c-10.769 25.831-26.547 49.273-46.426 68.972-19.652 19.904-43.068 35.706-68.877 46.487-25.813 10.781-53.508 16.329-81.481 16.318z" />
<glyph unicode="&#xe943;" glyph-name="paperclip-1" d="M85.333 448c0 117.821 99.334 213.333 221.869 213.333h471.721c87.539 0 158.775-67.745 159.735-151.91 0.977-85.487-70.827-155.29-159.735-155.29h-451.908c-53.46 0-97.12 41.075-98.282 92.467-1.198 52.996 43.153 96.579 98.282 96.579h432.802c19.605 0 35.499-15.281 35.499-34.136 0-18.85-15.893-34.133-35.499-34.133h-432.802c-15.313 0-27.633-12.105-27.3-26.825 0.323-14.276 12.45-25.685 27.3-25.685h451.908c49.395 0 89.284 38.78 88.738 86.272-0.529 46.759-40.107 84.395-88.738 84.395h-471.721c-83.324 0-150.871-64.947-150.871-145.067s67.547-145.067 150.871-145.067h594.609c19.605 0 35.499-15.283 35.499-34.133s-15.893-34.133-35.499-34.133h-594.609c-122.535 0-221.869 95.514-221.869 213.333z" />
<glyph unicode="&#xe944;" glyph-name="paper-plane" d="M877.227 817.493c-6.182 4.277-13.38 6.845-20.873 7.444s-15.010-0.791-21.794-4.031l-725.333-341.333c-7.393-3.52-13.617-9.092-17.929-16.051-4.312-6.963-6.531-15.014-6.391-23.202 0.136-8.183 2.621-16.154 7.16-22.959 4.539-6.81 10.94-12.169 18.44-15.441l230.827-101.12v-286.72l249.173 177.92 203.093-88.747c5.333-2.534 11.162-3.844 17.067-3.84 7.842 0.051 15.522 2.266 22.187 6.4 5.875 3.554 10.803 8.478 14.37 14.345 3.563 5.867 5.662 12.51 6.11 19.362l42.667 640c0.448 7.416-1.050 14.821-4.339 21.481-3.294 6.66-8.269 12.345-14.434 16.492zM772.267 205.653l-224.853 98.56 135.253 264.533-326.4-181.333-125.013 55.040 574.72 270.506-33.707-507.306z" />
<glyph unicode="&#xe945;" glyph-name="pencil" d="M170.667 64c3.401-0.414 6.839-0.414 10.24 0l170.667 42.667c7.571 1.801 14.506 5.636 20.053 11.093l524.373 526.079c15.893 15.988 24.815 37.616 24.815 60.16s-8.922 44.172-24.815 60.16l-67.413 67.84c-7.923 7.934-17.335 14.228-27.695 18.522s-21.466 6.505-32.678 6.505c-11.213 0-22.319-2.211-32.678-6.505s-19.767-10.588-27.695-18.522l-524.373-524.372c-5.513-5.572-9.483-12.484-11.52-20.053l-42.667-170.667c-1.533-5.521-1.939-11.294-1.193-16.977 0.746-5.679 2.629-11.153 5.535-16.090s6.778-9.237 11.384-12.646c4.605-3.409 9.85-5.858 15.421-7.194 3.401-0.414 6.839-0.414 10.24 0zM768 771.839l67.84-67.84-67.84-67.84-67.413 67.84 67.413 67.84zM252.16 255.573l387.84 388.265 67.84-67.84-388.266-388.265-90.027-22.187 22.613 90.027z" />
<glyph unicode="&#xe946;" glyph-name="pin" d="M512 21.333l42.667 85.333v128h213.333c11.315 0 22.17 4.497 30.17 12.497s12.497 18.854 12.497 30.17v67.669c0 22.443-9.131 44.459-25.003 60.331l-60.331 60.331v153.003c11.315 0 22.17 4.495 30.17 12.497s12.497 18.854 12.497 30.17v128c0 47.061-38.272 85.333-85.333 85.333h-341.333c-47.061 0-85.333-38.272-85.333-85.333v-128c0-11.316 4.495-22.168 12.497-30.17s18.854-12.497 30.17-12.497v-153.003l-60.331-60.331c-15.965-16.026-24.951-37.709-25.003-60.331v-67.669c0-11.315 4.495-22.17 12.497-30.17s18.854-12.497 30.17-12.497h213.333v-128l42.667-85.333zM341.333 789.333h341.333v-85.333h-341.333v85.333zM298.667 345.003l72.832 72.832c3.97 3.955 7.118 8.657 9.264 13.833 2.145 5.18 3.246 10.731 3.238 16.333v170.667h256v-170.667c0-11.349 4.48-22.187 12.501-30.165l72.832-72.832v-25.003h-426.667v25.003z" />
<glyph unicode="&#xe947;" glyph-name="plus" d="M810.667 490.667h-256v256h-85.333v-256h-256v-85.333h256v-256h85.333v256h256v85.333z" />
<glyph unicode="&#xe948;" glyph-name="plus-medical" d="M640 874.112h-256v-298.112h-298.667v-256h298.667v-298.112h256v298.112h298.667v256h-298.667v298.112z" />
<glyph unicode="&#xe949;" glyph-name="printer" d="M810.667 661.333h-42.667v213.333h-512v-213.333h-42.667c-70.571 0-128-57.429-128-128v-298.667c0-47.061 38.272-85.333 85.333-85.333h85.333v-128h512v128h85.333c47.061 0 85.333 38.272 85.333 85.333v298.667c0 70.571-57.429 128-128 128zM341.333 789.333h341.333v-128h-341.333v128zM682.667 106.667h-341.333v170.667h341.333v-170.667zM853.333 234.667h-85.333v128h-512v-128h-85.333v298.667c0 23.509 19.157 42.667 42.667 42.667h597.333c23.552 0 42.667-19.157 42.667-42.667v-298.667zM597.333 533.333h170.667v-85.333h-170.667v85.333z" />
<glyph unicode="&#xe94a;" glyph-name="purchase-tag" d="M584.832 819.499c-3.955 3.97-8.657 7.118-13.833 9.263-5.18 2.146-10.731 3.246-16.333 3.238h-384c-11.316 0-22.168-4.495-30.17-12.497s-12.497-18.854-12.497-30.17v-384c0-11.349 4.48-22.187 12.501-30.165l341.333-341.333c3.955-3.977 8.653-7.13 13.828-9.284 5.18-2.155 10.731-3.26 16.337-3.26s11.157 1.105 16.337 3.26c5.175 2.155 9.873 5.308 13.828 9.284l384 384c3.964 3.959 7.113 8.661 9.259 13.837s3.251 10.726 3.251 16.329c0 5.602-1.105 11.153-3.251 16.329s-5.295 9.877-9.259 13.837l-341.333 341.333zM512 124.331l-298.667 298.667v323.669h323.669l298.667-298.667-323.669-323.669zM362.496 533.333c35.464 0 64.213 28.749 64.213 64.213s-28.749 64.213-64.213 64.213c-35.464 0-64.213-28.749-64.213-64.213s28.749-64.213 64.213-64.213z" />
<glyph unicode="&#xe94b;" glyph-name="qr-scan" d="M170.667 789.333h171.093v85.333h-256.427v-256h85.333v170.667zM170.667 277.333h-85.333v-256h256.427v85.333h-171.093v170.667zM853.333 106.667h-170.667v-85.333h256v256h-85.333v-170.667zM682.667 789.333h170.667v-170.667h85.333v256h-256v-85.333zM213.333 490.667h256v256h-256v-256zM298.667 661.333h85.333v-85.333h-85.333v85.333zM213.333 149.333h256v256h-256v-256zM298.667 320h85.333v-85.333h-85.333v85.333zM810.667 746.667h-256v-256h256v256zM725.333 576h-85.333v85.333h85.333v-85.333zM555.093 405.333h85.333v-85.333h-85.333v85.333zM640.427 320h85.333v-85.333h-85.333v85.333zM725.76 234.667h85.333v-85.333h-85.333v85.333zM725.76 405.333h85.333v-85.333h-85.333v85.333z" />
<glyph unicode="&#xe94c;" glyph-name="redo" d="M384 192h128v85.333h-128c-70.571 0-128 57.429-128 128s57.429 128 128 128h256v-128l213.333 170.667-213.333 170.667v-128h-256c-117.632 0-213.333-95.701-213.333-213.333s95.701-213.333 213.333-213.333z" />
<glyph unicode="&#xe94d;" glyph-name="rss" d="M810.667 106.624c0 352.939-287.104 640.043-640 640.043v-85.333c305.835 0 554.667-248.832 554.667-554.709h85.333zM512 106.624h85.333c0 235.307-191.403 426.709-426.667 426.709v-85.333c188.203 0 341.333-153.131 341.333-341.376zM256 106.667c47.128 0 85.333 38.204 85.333 85.333s-38.205 85.333-85.333 85.333c-47.128 0-85.333-38.204-85.333-85.333s38.205-85.333 85.333-85.333z" />
<glyph unicode="&#xe94e;" glyph-name="save" d="M213.333 64h597.333c22.63 0 44.335 8.99 60.339 24.994 16.004 16 24.994 37.705 24.994 60.339v469.332c0.034 5.615-1.045 11.182-3.166 16.38-2.125 5.199-5.252 9.926-9.207 13.913l-170.667 170.667c-3.985 3.954-8.717 7.083-13.914 9.206s-10.765 3.2-16.38 3.167h-469.333c-22.632 0-44.337-8.99-60.34-24.993s-24.994-37.708-24.994-60.34v-597.332c0-22.635 8.99-44.339 24.994-60.339 16.003-16.004 37.708-24.994 60.34-24.994zM640 149.333h-256v213.333h256v-213.333zM554.667 661.332h-85.333v85.333h85.333v-85.333zM213.333 746.666h85.333v-170.667h341.333v170.667h25.173l145.493-145.493v-451.839h-85.333v213.333c0 22.63-8.99 44.335-24.994 60.339s-37.709 24.994-60.339 24.994h-256c-22.632 0-44.337-8.99-60.34-24.994s-24.994-37.709-24.994-60.339v-213.333h-85.333v597.332z" />
<glyph unicode="&#xe94f;" glyph-name="s-chevron-up" d="M512 666.496l-301.268-301.227 90.539-90.539 210.729 210.773 210.731-210.773 90.539 90.539-301.269 301.227z" />
<glyph unicode="&#xe950;" glyph-name="search" d="M426.667 192c75.733 0.017 149.282 25.37 208.939 72.021l187.563-187.563 60.331 60.331-187.563 187.563c46.677 59.661 72.047 133.231 72.064 208.981 0 188.203-153.131 341.333-341.333 341.333s-341.333-153.131-341.333-341.333c0-188.203 153.131-341.333 341.333-341.333zM426.667 789.333c141.184 0 256-114.816 256-256s-114.816-256-256-256c-141.184 0-256 114.816-256 256s114.816 256 256 256z" />
<glyph unicode="&#xe951;" glyph-name="send" d="M914.176 486.613l-725.333 341.333c-7.303 3.455-15.438 4.764-23.456 3.773s-15.59-4.24-21.832-9.369c-6.243-5.129-10.899-11.927-13.426-19.6s-2.822-15.908-0.848-23.743l82.731-331.008-82.731-331.008c-1.992-7.838-1.711-16.081 0.811-23.765 2.521-7.68 7.178-14.49 13.426-19.622s13.829-8.38 21.856-9.365c8.026-0.981 16.167 0.341 23.47 3.814l725.333 341.333c7.33 3.447 13.53 8.905 17.869 15.744 4.343 6.839 6.647 14.771 6.647 22.869s-2.304 16.030-6.647 22.869c-4.339 6.839-10.539 12.297-17.869 15.744zM233.856 183.595l35.797 143.232 242.346 121.173-242.346 121.173-35.797 143.232 561.92-264.405-561.92-264.405z" />
<glyph unicode="&#xe952;" glyph-name="share-link" d="M568.747 268.373c0-18.773-15.787-34.133-34.56-34.133s-34.987 15.36-34.987 34.56c0.853 23.040-17.067 42.667-40.107 43.52h-79.787c0 0-2.56-0.427-3.84-0.853-21.76-3.84-35.84-24.747-31.573-46.507 0-20.48 29.013-39.68 49.92-39.68 18.773 0 34.56-15.787 34.56-34.987s-15.787-34.56-34.56-34.56c-56.32 0-119.040 46.080-119.040 107.52 0 2.133-0.427 5.12-0.427 8.107-1.707 58.88 45.653 108.373 104.96 110.080h79.787c61.44-1.28 110.507-51.627 109.653-113.067zM812.373 612.267h0.427c-0.427 8.96-3.84 17.067-10.24 23.893l-227.84 227.84c-6.827 6.4-16.213 10.24-26.027 10.667h-284.16c-52.053 0-93.867-42.24-93.867-93.867v-682.667c0-52.053 41.813-93.867 93.867-93.867h454.827c52.053 0 93.867 41.813 93.867 94.293v156.16c0.427 288 0.427 344.747-0.853 357.547zM585.813 748.373l101.12-101.547h-81.067c-16.213 0-20.053 3.84-20.053 20.053v81.493zM739.413 98.133c0-11.093-8.96-20.053-20.053-20.053h-454.827c-11.093 0-20.053 8.96-20.053 20.053v682.667c0 10.667 8.96 19.627 20.053 19.627h247.467v-132.693c-4.267-48.213 32-90.88 80.213-94.72 4.693-0.427 9.387-0.427 13.653 0h133.547v-474.88zM709.547 266.24c1.707-59.307-45.653-108.8-104.96-110.507h-79.787c-61.44 1.28-110.507 52.053-109.653 113.067 0 18.773 15.787 34.56 34.56 34.56s34.56-15.787 34.56-34.56c0-23.467 17.493-43.093 40.533-43.52h79.787c0 0 2.56 0 4.267 0.427 21.333 4.267 35.413 25.173 31.147 46.507-0.427 20.907-29.013 40.107-49.92 40.107-19.2 0-34.56 15.36-34.56 34.56s15.36 34.56 34.56 34.56c56.32 0 119.040-46.080 119.040-107.52 0-2.133 0.427-4.693 0.427-7.68z" />
<glyph unicode="&#xe953;" glyph-name="shocked" d="M512 874.667c-235.264 0-426.667-191.403-426.667-426.667s191.403-426.667 426.667-426.667c235.264 0 426.667 191.403 426.667 426.667s-191.403 426.667-426.667 426.667zM512 106.667c-188.203 0-341.333 153.131-341.333 341.333s153.131 341.333 341.333 341.333c188.203 0 341.333-153.131 341.333-341.333s-153.131-341.333-341.333-341.333zM362.667 448c35.346 0 64 28.655 64 64s-28.654 64-64 64-64-28.654-64-64c0-35.345 28.654-64 64-64zM661.035 448.597c35.183 0 63.701 28.518 63.701 63.701 0 35.181-28.518 63.701-63.701 63.701s-63.701-28.52-63.701-63.701c0-35.183 28.518-63.701 63.701-63.701zM512 192c70.694 0 128 47.757 128 106.667s-57.306 106.667-128 106.667c-70.694 0-128-47.757-128-106.667s57.306-106.667 128-106.667z" />
<glyph unicode="&#xe954;" glyph-name="shopping-bag" d="M213.333 21.333h597.333c47.061 0 85.333 38.272 85.333 85.333v469.333c0 11.316-4.497 22.168-12.497 30.17s-18.854 12.497-30.17 12.497h-128v42.667c0 117.632-95.701 213.333-213.333 213.333s-213.333-95.701-213.333-213.333v-42.667h-128c-11.316 0-22.168-4.495-30.17-12.497s-12.497-18.854-12.497-30.17v-469.333c0-47.061 38.272-85.333 85.333-85.333zM384 661.333c0 70.571 57.429 128 128 128s128-57.429 128-128v-42.667h-256v42.667zM213.333 533.333h85.333v-85.333h85.333v85.333h256v-85.333h85.333v85.333h85.333l0.085-426.667h-597.419v426.667z" />
<glyph unicode="&#xe955;" glyph-name="show" d="M512 576c-33.877-0.224-66.308-13.781-90.263-37.737-23.956-23.954-37.514-56.385-37.738-90.263 0-70.059 57.942-128 128.001-128 70.016 0 128 57.941 128 128 0 70.016-57.984 128-128 128zM512 746.667c-325.676 0-423.553-282.325-424.449-285.184l-4.523-13.483 4.48-13.483c0.939-2.859 98.816-285.184 424.492-285.184s423.552 282.325 424.448 285.184l4.523 13.483-4.48 13.483c-0.939 2.859-98.816 285.184-424.491 285.184zM512 234.667c-228.31 0-316.758 164.096-338.177 213.333 21.504 49.408 109.995 213.333 338.177 213.333 228.309 0 316.757-164.096 338.176-213.333-21.504-49.408-109.995-213.333-338.176-213.333z" />
<glyph unicode="&#xe956;" glyph-name="sitemap" d="M853.333 404.907h-298.667v128.427h42.667c47.061 0 85.333 38.272 85.333 85.333v170.667c0 47.061-38.272 85.333-85.333 85.333h-170.667c-47.061 0-85.333-38.272-85.333-85.333v-170.667c0-47.061 38.272-85.333 85.333-85.333h42.667v-128.427h-298.667v-212.907h-42.667v-170.667h170.667v170.667h-42.667v127.573h213.333v-127.573h-42.667v-170.667h170.667v170.667h-42.667v127.573h213.333v-127.573h-42.667v-170.667h170.667v170.667h-42.667v212.907zM426.667 618.667v170.667h170.667l0.085-170.667h-170.752z" />
<glyph unicode="&#xe957;" glyph-name="slideshow" d="M853.333 832h-682.667c-47.061 0-85.333-38.272-85.333-85.333v-426.667c0-47.061 38.272-85.333 85.333-85.333h298.667v-128h-128v-85.333h341.333v85.333h-128v128h298.667c47.061 0 85.333 38.272 85.333 85.333v426.667c0 47.061-38.272 85.333-85.333 85.333zM170.667 320v426.667h682.667l0.043-426.667h-682.709zM426.667 405.333l213.333 128-213.333 128v-256z" />
<glyph unicode="&#xe958;" glyph-name="smile" d="M512 874.667c-235.264 0-426.667-191.403-426.667-426.667s191.403-426.667 426.667-426.667c235.264 0 426.667 191.403 426.667 426.667s-191.403 426.667-426.667 426.667zM512 106.667c-188.203 0-341.333 153.131-341.333 341.333s153.131 341.333 341.333 341.333c188.203 0 341.333-153.131 341.333-341.333s-153.131-341.333-341.333-341.333zM632.704 327.339c-15.595-15.543-34.018-27.972-54.272-36.608-36.467-15.394-77.15-17.643-115.093-6.357-37.94 11.285-70.781 35.401-92.907 68.224l-70.741-47.744c18.451-27.226 41.924-50.688 69.163-69.12 27.718-18.743 58.863-31.838 91.648-38.528 33.997-6.933 69.043-6.933 103.040 0 32.781 6.699 63.923 19.793 91.648 38.528 13.355 9.045 26.112 19.541 37.803 31.189 11.605 11.563 22.187 24.363 31.317 37.931l-70.741 47.744c-6.131-9.067-13.12-17.523-20.864-25.259zM362.667 448c35.346 0 64 28.655 64 64s-28.654 64-64 64-64-28.654-64-64c0-35.345 28.654-64 64-64zM661.035 448.597c35.183 0 63.701 28.518 63.701 63.701 0 35.181-28.518 63.701-63.701 63.701s-63.701-28.52-63.701-63.701c0-35.183 28.518-63.701 63.701-63.701z" />
<glyph unicode="&#xe959;" glyph-name="solid-angry" d="M512 874.667c-235.264 0-426.667-191.403-426.667-426.667s191.403-426.667 426.667-426.667c235.264 0 426.667 191.403 426.667 426.667s-191.403 426.667-426.667 426.667zM298.667 512l0.085 0.939-58.581 23.424 31.659 79.232 213.333-85.333-31.659-79.232-43.989 17.621c-0.597-0.597-0.981-1.323-1.579-1.877-8.94-8.973-20.344-15.091-32.765-17.579-12.422-2.483-25.301-1.225-37.006 3.622-11.705 4.843-21.708 13.056-28.739 23.59-7.031 10.539-10.776 22.925-10.758 35.593zM341.333 234.667c0 0 42.667 128 170.667 128s170.667-128 170.667-128h-341.333zM724.736 512.299c0-17.579-7.125-33.493-18.688-45.056-5.901-5.943-12.919-10.662-20.655-13.884-7.731-3.217-16.026-4.877-24.401-4.877s-16.67 1.66-24.401 4.877c-7.735 3.221-14.754 7.94-20.655 13.884-0.469 0.469-0.811 1.024-1.237 1.493l-44.245-17.707-31.659 79.232 213.333 85.333 31.659-79.232-59.136-23.637c0.047-0.137 0.077-0.282 0.085-0.427z" />
<glyph unicode="&#xe95a;" glyph-name="solid-area" d="M128 149.333c0-22.63 8.99-44.335 24.994-60.339s37.708-24.994 60.34-24.994h597.333c22.63 0 44.335 8.99 60.339 24.994s24.994 37.709 24.994 60.339v597.333c0 22.632-8.99 44.337-24.994 60.34s-37.709 24.994-60.339 24.994h-597.333c-22.632 0-44.337-8.99-60.34-24.994s-24.994-37.708-24.994-60.34v-597.333zM512 704h256v-256h-85.333v170.667h-170.667v85.333zM256 448h85.333v-170.667h170.667v-85.333h-256v256z" />
<glyph unicode="&#xe95b;" glyph-name="solid-bar-chart-alt-2" d="M256 64h-128c-11.316 0-22.168 4.497-30.17 12.497s-12.497 18.854-12.497 30.17v341.333c0 11.315 4.495 22.17 12.497 30.17s18.854 12.497 30.17 12.497h128c11.316 0 22.168-4.497 30.17-12.497s12.497-18.854 12.497-30.17v-341.333c0-11.315-4.495-22.17-12.497-30.17s-18.854-12.497-30.17-12.497zM554.667 64h-128c-11.316 0-22.168 4.497-30.17 12.497s-12.497 18.854-12.497 30.17v725.333c0 11.316 4.495 22.168 12.497 30.17s18.854 12.497 30.17 12.497h128c11.315 0 22.17-4.495 30.17-12.497s12.497-18.854 12.497-30.17v-725.333c0-11.315-4.497-22.17-12.497-30.17s-18.854-12.497-30.17-12.497zM853.333 64h-128c-11.315 0-22.17 4.497-30.17 12.497s-12.497 18.854-12.497 30.17v469.333c0 11.316 4.497 22.168 12.497 30.17s18.854 12.497 30.17 12.497h128c11.315 0 22.17-4.495 30.17-12.497s12.497-18.854 12.497-30.17v-469.333c0-11.315-4.497-22.17-12.497-30.17s-18.854-12.497-30.17-12.497z" />
<glyph unicode="&#xe95c;" glyph-name="solid-bell" d="M512 21.333c26.423-0.034 52.203 8.166 73.749 23.458 21.547 15.296 37.794 36.919 46.485 61.875h-240.469c8.689-24.956 24.938-46.579 46.485-61.875 21.547-15.292 47.326-23.492 73.749-23.458zM810.667 337.664v195.669c0 137.259-93.227 252.885-219.52 287.659-12.501 31.488-43.051 53.675-79.147 53.675s-66.645-22.187-79.147-53.675c-126.293-34.816-219.52-150.4-219.52-287.659v-195.669l-72.832-72.832c-3.97-3.955-7.118-8.657-9.263-13.833-2.146-5.18-3.246-10.731-3.238-16.333v-42.667c0-11.315 4.495-22.17 12.497-30.17s18.854-12.497 30.17-12.497h682.667c11.315 0 22.17 4.497 30.17 12.497s12.497 18.854 12.497 30.17v42.667c0.009 5.602-1.092 11.153-3.238 16.333-2.146 5.175-5.295 9.877-9.263 13.833l-72.832 72.832z" />
<glyph unicode="&#xe95d;" glyph-name="solid-body" d="M517.035 688.324c51.46 0 93.171 41.714 93.171 93.171s-41.711 93.171-93.171 93.171c-51.456 0-93.17-41.714-93.17-93.171s41.714-93.171 93.17-93.171zM215.474 661.297c-24.893 0-44.808-20.27-44.808-44.808s20.27-44.808 44.808-44.808h169.629c11.38 0 24.893-4.978 32.716-24.893 8.89-23.116 4.623-67.566-1.067-102.062l-7.113-40.896c0 0 0-0.354 0-0.713l-57.609-327.876c-4.268-24.892 12.091-48.363 36.984-52.988 24.538-4.267 48.007 12.092 52.274 36.629 0 0 0 0.354 0 0.713l39.829 227.947c0 0 12.804 54.054 36.275 54.054s36.271-54.054 36.271-54.054l39.829-227.947c3.913-24.892 27.383-41.609 51.921-37.696 24.892 3.913 41.604 27.383 37.696 51.921 0 0.354 0 1.067 0 1.421l-57.613 327.876c0 0 0 0.358 0 0.713l-7.113 40.896c-5.333 34.496-9.954 78.946-1.067 102.062 7.471 19.915 21.338 24.893 32.009 24.893h169.984c24.892 0 44.804 20.27 44.804 44.808s-20.267 44.808-44.804 44.808h-603.837z" />
<glyph unicode="&#xe95e;" glyph-name="solid-bug-alt" d="M768 729.003l72.832 72.832-60.331 60.331-66.688-66.645c-53.205 48.939-123.989 79.147-201.813 79.147s-148.608-30.208-201.813-79.147l-66.688 66.645-60.331-60.331 72.832-72.832c-27.897-46.161-42.651-99.067-42.667-153.003h-85.333v-85.333h85.333v-85.333h-85.333v-85.333h85.333c0-164.693 134.016-298.667 298.667-298.667s298.667 133.973 298.667 298.667h85.333v85.333h-85.333v85.333h85.333v85.333h-85.333c-0.017 53.936-14.771 106.842-42.667 153.003zM640 320h-256v85.333h256v-85.333zM640 490.667h-256v85.333h256v-85.333z" />
<glyph unicode="&#xe95f;" glyph-name="solid-calendar-check" d="M213.333 21.333h597.333c47.061 0 85.333 38.272 85.333 85.333v597.333c0 47.061-38.272 85.333-85.333 85.333h-85.333v85.333h-85.333v-85.333h-256v85.333h-85.333v-85.333h-85.333c-47.061 0-85.333-38.272-85.333-85.333v-597.333c0-47.061 38.272-85.333 85.333-85.333zM469.333 174.336l-158.165 158.165 60.331 60.331 97.835-97.835 183.168 183.168 60.331-60.331-243.499-243.499zM213.333 661.333h597.333v-85.333h-597.333v85.333z" />
<glyph unicode="&#xe960;" glyph-name="solid-calendar-edit" d="M213.333 21.333h597.333c47.061 0 85.333 38.272 85.333 85.333v597.333c0 47.061-38.272 85.333-85.333 85.333h-85.333v85.333h-85.333v-85.333h-256v85.333h-85.333v-85.333h-85.333c-47.061 0-85.333-38.272-85.333-85.333v-597.333c0-47.061 38.272-85.333 85.333-85.333zM418.091 107.221h-76.757v76.757l212.352 212.053 76.757-76.757-212.352-212.053zM666.581 355.413l-76.757 76.757 58.539 58.496 76.757-76.757-58.539-58.496zM213.333 661.333h597.333v-85.333h-597.333v85.333z" />
<glyph unicode="&#xe961;" glyph-name="solid-cart-add" d="M448 64c35.345 0 64 28.655 64 64s-28.655 64-64 64c-35.346 0-64-28.655-64-64s28.654-64 64-64zM746.667 64c35.345 0 64 28.655 64 64s-28.655 64-64 64c-35.345 0-64-28.655-64-64s28.655-64 64-64zM896 661.333h-583.083l-49.237 118.187c-6.464 15.567-17.403 28.865-31.433 38.208s-30.517 14.31-47.373 14.272h-99.541v-85.333h99.584l202.368-485.76c6.613-15.872 22.187-26.24 39.381-26.24h341.333c17.792 0 33.707 11.051 39.979 27.648l128 341.333c2.398 6.46 3.2 13.404 2.338 20.24s-3.362 13.364-7.283 19.028c-3.925 5.663-9.161 10.295-15.262 13.502-6.097 3.206-12.881 4.893-19.772 4.916zM725.333 405.333h-85.333v-85.333h-85.333v85.333h-85.333v85.333h85.333v85.333h85.333v-85.333h85.333v-85.333z" />
<glyph unicode="&#xe962;" glyph-name="solid-cart-download" d="M448 64c35.345 0 64 28.655 64 64s-28.655 64-64 64c-35.346 0-64-28.655-64-64s28.654-64 64-64zM746.667 64c35.345 0 64 28.655 64 64s-28.655 64-64 64c-35.345 0-64-28.655-64-64s28.655-64 64-64zM896 661.333h-583.083l-49.237 118.187c-6.464 15.567-17.403 28.865-31.433 38.208s-30.517 14.31-47.373 14.272h-99.541v-85.333h99.584l202.368-485.76c6.613-15.872 22.187-26.24 39.381-26.24h341.333c17.792 0 33.707 11.051 39.979 27.648l128 341.333c2.398 6.46 3.2 13.404 2.338 20.24s-3.362 13.364-7.283 19.028c-3.925 5.663-9.161 10.295-15.262 13.502-6.097 3.206-12.881 4.893-19.772 4.916zM597.333 320l-128 128h85.333v128h85.333v-128h85.333l-128-128z" />
<glyph unicode="&#xe963;" glyph-name="solid-chart" d="M810.667 64c47.061 0 85.333 38.272 85.333 85.333v597.333c0 47.061-38.272 85.333-85.333 85.333h-597.333c-47.061 0-85.333-38.272-85.333-85.333v-597.333c0-47.061 38.272-85.333 85.333-85.333h597.333zM407.595 547.925l170.667-85.333 66.261 132.48 76.331-38.187-104.405-208.853-170.667 85.333-66.261-132.48-76.331 38.187 104.405 208.853z" />
<glyph unicode="&#xe964;" glyph-name="solid-chat" d="M170.667 192h85.333v-174.123l217.643 174.123h209.024c47.061 0 85.333 38.272 85.333 85.333v341.333c0 47.061-38.272 85.333-85.333 85.333h-512c-47.061 0-85.333-38.272-85.333-85.333v-341.333c0-47.061 38.272-85.333 85.333-85.333zM853.333 874.667h-512c-47.061 0-85.333-38.272-85.333-85.333h512c47.061 0 85.333-38.272 85.333-85.333v-341.333c47.061 0 85.333 38.272 85.333 85.333v341.333c0 47.061-38.272 85.333-85.333 85.333z" />
<glyph unicode="&#xe965;" glyph-name="solid-chevron-down" d="M722.731 621.269l-210.731-210.773-210.729 210.773-90.539-90.539 301.268-301.227 301.269 301.227-90.539 90.539z" />
<glyph unicode="&#xe966;" glyph-name="solid-chevron-left" d="M594.731 749.269l-301.225-301.269 301.225-301.269 90.539 90.539-210.773 210.731 210.773 210.731-90.539 90.539z" />
<glyph unicode="&#xe967;" glyph-name="solid-chevron-right" d="M429.269 146.731l301.227 301.269-301.227 301.269-90.537-90.539 210.772-210.731-210.772-210.731 90.537-90.539z" />
<glyph unicode="&#xe968;" glyph-name="solid-chip" d="M810.667 661.333c0 22.632-8.99 44.337-24.994 60.34s-37.709 24.994-60.339 24.994h-42.667v128h-85.333v-128h-170.667v128h-85.333v-128h-42.667c-22.632 0-44.337-8.99-60.34-24.994s-24.994-37.708-24.994-60.34v-42.667h-128v-85.333h128v-170.667h-128v-85.333h128v-42.667c0-22.63 8.99-44.335 24.994-60.339s37.708-24.994 60.34-24.994h42.667v-128h85.333v128h170.667v-128h85.333v128h42.667c22.63 0 44.335 8.99 60.339 24.994s24.994 37.709 24.994 60.339v42.667h128v85.333h-128v170.667h128v85.333h-128v42.667zM640 320h-256v256h256v-256z" />
<glyph unicode="&#xe969;" glyph-name="solid-cog" d="M100.011 308.437l85.333-147.627c5.665-9.792 14.988-16.934 25.917-19.853 10.929-2.923 22.572-1.382 32.366 4.279l59.563 34.389c24.747-19.499 52.096-35.499 80.853-47.445v-68.181c0-11.315 4.495-22.17 12.497-30.17s18.854-12.497 30.169-12.497h170.667c11.315 0 22.17 4.497 30.17 12.497 8.004 8 12.497 18.854 12.497 30.17v68.181c28.983 12.066 56.183 28.028 80.853 47.445l59.563-34.389c20.352-11.733 46.549-4.693 58.283 15.573l85.333 147.627c5.615 9.805 7.13 21.431 4.215 32.346-2.918 10.918-10.031 20.241-19.789 25.937l-58.539 33.835c4.574 31.467 4.544 63.433-0.085 94.891l58.539 33.835c20.309 11.733 27.349 37.973 15.573 58.283l-85.333 147.627c-5.666 9.792-14.989 16.934-25.916 19.854-10.931 2.92-22.571 1.381-32.367-4.281l-59.563-34.389c-24.636 19.44-51.827 35.404-80.811 47.445v68.181c0 11.316-4.493 22.168-12.497 30.17-8 8.001-18.854 12.497-30.17 12.497h-170.667c-11.315 0-22.168-4.495-30.169-12.497s-12.497-18.854-12.497-30.17v-68.181c-28.982-12.067-56.184-28.029-80.853-47.445l-59.52 34.389c-4.848 2.809-10.203 4.634-15.757 5.372s-11.2 0.372-16.613-1.074c-5.413-1.446-10.488-3.946-14.934-7.356s-8.177-7.663-10.978-12.515l-85.333-147.627c-5.615-9.805-7.13-21.431-4.212-32.348s10.028-20.238 19.786-25.935l58.539-33.835c-4.602-31.462-4.602-63.428 0-94.891l-58.539-33.835c-20.309-11.733-27.349-37.973-15.573-58.283zM512 618.667c94.123 0 170.667-76.544 170.667-170.667s-76.544-170.667-170.667-170.667c-94.122 0-170.666 76.544-170.666 170.667s76.544 170.667 170.666 170.667z" />
<glyph unicode="&#xe96a;" glyph-name="solid-comment-detail" d="M853.333 874.708h-682.667c-47.061 0-85.333-38.272-85.333-85.333v-767.999l170.667 170.667h597.333c47.061 0 85.333 38.272 85.333 85.333v511.999c0 47.061-38.272 85.333-85.333 85.333zM597.333 405.376h-298.667v85.333h298.667v-85.333zM725.333 576.042h-426.667v85.333h426.667v-85.333z" />
<glyph unicode="&#xe96b;" glyph-name="solid-conversation" d="M704 362.667c35.285 0 64 28.715 64 64v384c0 35.285-28.715 64-64 64h-554.667c-35.285 0-64-28.715-64-64v-618.667l227.541 170.667h391.125zM170.667 366.933l6.571 0.683-6.571-4.949v4.267zM874.667 618.667h-21.333v-256.043c0-46.933-38.101-85.035-84.907-85.291h-427.093v-21.333c0-35.285 28.715-64 64-64h305.792l227.541-170.667v533.333c0 35.285-28.715 64-64 64z" />
<glyph unicode="&#xe96c;" glyph-name="solid-copy" d="M597.333 618.667h-426.667c-47.061 0-85.333-38.272-85.333-85.333v-426.667c0-47.061 38.272-85.333 85.333-85.333h426.667c47.061 0 85.333 38.272 85.333 85.333v426.667c0 47.061-38.272 85.333-85.333 85.333zM853.333 874.667h-426.667c-22.632 0-44.337-8.99-60.34-24.994s-24.994-37.708-24.994-60.34v-85.333h341.333c22.63 0 44.335-8.99 60.339-24.994s24.994-37.708 24.994-60.34v-341.333h85.333c22.63 0 44.335 8.99 60.339 24.994s24.994 37.709 24.994 60.339v426.667c0 22.632-8.99 44.337-24.994 60.34s-37.709 24.994-60.339 24.994z" />
<glyph unicode="&#xe96d;" glyph-name="solid-credit-card" d="M853.333 789.333h-682.667c-47.061 0-85.333-38.272-85.333-85.333v-85.333h853.333v85.333c0 47.061-38.272 85.333-85.333 85.333zM85.333 192c0-47.061 38.272-85.333 85.333-85.333h682.667c47.061 0 85.333 38.272 85.333 85.333v256h-853.333v-256zM213.333 320h256v-85.333h-256v85.333z" />
<glyph unicode="&#xe96e;" glyph-name="solid-credit-card-alt" d="M853.333 789.333h-682.667c-47.061 0-85.333-38.272-85.333-85.333v-512c0-47.061 38.272-85.333 85.333-85.333h682.667c47.061 0 85.333 38.272 85.333 85.333v512c0 47.061-38.272 85.333-85.333 85.333zM533.333 277.333c-28.288 0-55.42 11.238-75.426 31.241-20.002 20.006-31.241 47.138-31.241 75.426s11.238 55.42 31.241 75.426c20.006 20.002 47.138 31.241 75.426 31.241 23.155-0.055 45.645-7.731 64-21.845-25.771-19.456-42.667-50.048-42.667-84.821s16.896-65.365 42.667-84.821c-18.355-14.114-40.845-21.79-64-21.845zM704 277.333c-28.288 0-55.42 11.238-75.426 31.241-20.002 20.006-31.241 47.138-31.241 75.426s11.238 55.42 31.241 75.426c20.006 20.002 47.138 31.241 75.426 31.241s55.42-11.238 75.426-31.241c20.002-20.006 31.241-47.138 31.241-75.426s-11.238-55.42-31.241-75.426c-20.006-20.002-47.138-31.241-75.426-31.241z" />
<glyph unicode="&#xe96f;" glyph-name="solid-dashboard" d="M170.667 405.333h256c11.315 0 22.17 4.497 30.17 12.497s12.497 18.854 12.497 30.17v341.333c0 11.316-4.497 22.168-12.497 30.17s-18.854 12.497-30.17 12.497h-256c-11.316 0-22.168-4.495-30.17-12.497s-12.497-18.854-12.497-30.17v-341.333c0-11.315 4.495-22.17 12.497-30.17s18.854-12.497 30.17-12.497zM128 106.667c0-11.315 4.495-22.17 12.497-30.17s18.854-12.497 30.17-12.497h256c11.315 0 22.17 4.497 30.17 12.497s12.497 18.854 12.497 30.17v170.667c0 11.315-4.497 22.17-12.497 30.17s-18.854 12.497-30.17 12.497h-256c-11.316 0-22.168-4.497-30.17-12.497s-12.497-18.854-12.497-30.17v-170.667zM554.667 106.667c0-11.315 4.497-22.17 12.497-30.17s18.854-12.497 30.17-12.497h256c11.315 0 22.17 4.497 30.17 12.497s12.497 18.854 12.497 30.17v298.667c0 11.315-4.497 22.17-12.497 30.17s-18.854 12.497-30.17 12.497h-256c-11.315 0-22.17-4.497-30.17-12.497s-12.497-18.854-12.497-30.17v-298.667zM597.333 533.333h256c11.315 0 22.17 4.495 30.17 12.497s12.497 18.854 12.497 30.17v213.333c0 11.316-4.497 22.168-12.497 30.17s-18.854 12.497-30.17 12.497h-256c-11.315 0-22.17-4.495-30.17-12.497s-12.497-18.854-12.497-30.17v-213.333c0-11.316 4.497-22.168 12.497-30.17s18.854-12.497 30.17-12.497z" />
<glyph unicode="&#xe970;" glyph-name="solid-data" d="M853.333 704c0 92.501-156.288 170.667-341.333 170.667s-341.333-78.165-341.333-170.667v-85.333c0-92.501 156.288-170.667 341.333-170.667s341.333 78.165 341.333 170.667v85.333zM512 149.333c-185.045 0-341.333 78.165-341.333 170.667v-128c0-92.501 156.288-170.667 341.333-170.667s341.333 78.165 341.333 170.667v128c0-92.501-156.288-170.667-341.333-170.667zM853.333 533.333c0-92.501-156.288-170.667-341.333-170.667s-341.333 78.165-341.333 170.667v-128c0-92.501 156.288-170.667 341.333-170.667s341.333 78.165 341.333 170.667v128z" />
<glyph unicode="&#xe971;" glyph-name="solid-delivery" d="M730.001 745.969c88.781-20.602 122.739-72.515 165.321-143.968h-165.321v143.968zM211.156 596c17.383 0 30-8.391 30-28 0-16.539-13.383-29.953-29.914-30h-181.242c-16.57 0-30-13.439-30-30.002 0-16.567 13.43-29.999 30-29.999h270c16.727 0 30.117-13.423 30.117-29.999 0-16.572-13.43-29.999-30-29.999h-270.117c-16.57 0-30-13.431-30-29.999 0-16.572 13.43-30.003 30-30.003h66v-90.001c0-16.567 13.43-29.999 30-29.999h60.305c10.75-52.954 57.539-91.998 112.695-91.998s101.946 39.044 112.695 91.998h304.61c10.748-52.954 57.54-91.998 112.695-91.998s101.943 39.044 112.695 91.998h52.305c16.567 0 29.999 13.431 29.999 29.999v180.002c0 88.023-92.843 93.867-92.928 94h-231.074c-16.567 0-29.999 13.43-29.999 30v180h-543.999c-16.57 0-30-13.43-30-30v-66h-36c-16.57 0-30-13.43-30-30s13.43-30 30-30h151.156zM867.891 299.891c21.474-21.478 21.474-56.311 0-77.79-34.547-34.547-93.892-9.967-93.892 38.899 0 48.858 59.345 73.438 93.892 38.891zM337.891 299.891c21.477-21.478 21.477-56.311 0-77.79-34.547-34.547-93.891-9.967-93.891 38.899 0 48.858 59.344 73.438 93.891 38.891z" />
<glyph unicode="&#xe972;" glyph-name="solid-edit" d="M810.155 874.154l128-128-97.579-97.621-128 128 97.579 97.621zM341.333 277.333h128l310.912 310.911-128 128-310.912-310.911v-128zM810.667 149.333h-462.592c-1.109 0-2.261-0.427-3.371-0.427-1.408 0-2.816 0.384-4.267 0.427h-127.104v597.332h292.139l85.333 85.333h-377.472c-47.061 0-85.333-38.229-85.333-85.333v-597.332c0-47.104 38.272-85.333 85.333-85.333h597.333c22.63 0 44.335 8.99 60.339 24.994 16.004 16 24.994 37.705 24.994 60.339v369.835l-85.333-85.333v-284.501z" />
<glyph unicode="&#xe973;" glyph-name="solid-edit-alt" d="M682.667 874.154l128-128-97.579-97.621-128 128 97.579 97.621zM170.667 362.667v-128h128l354.091 353.578-128 128-354.091-353.578zM170.667 106.667h682.667v-85.333h-682.667v85.333z" />
<glyph unicode="&#xe974;" glyph-name="solid-envelope" d="M853.333 789.333h-682.667c-22.632 0-44.337-8.99-60.34-24.994s-24.994-37.708-24.994-60.34v-512c0-22.63 8.99-44.335 24.994-60.339s37.708-24.994 60.34-24.994h682.667c22.63 0 44.335 8.99 60.339 24.994s24.994 37.709 24.994 60.339v512c0 22.632-8.99 44.337-24.994 60.34s-37.709 24.994-60.339 24.994zM853.333 588.8l-341.333-227.584-341.333 227.584v102.528l341.333-227.541 341.333 227.541v-102.528z" />
<glyph unicode="&#xe975;" glyph-name="solid-error-alt" d="M712.832 862.165c-3.955 3.97-8.657 7.118-13.833 9.263-5.18 2.146-10.731 3.246-16.333 3.238h-341.333c-5.604 0.008-11.154-1.092-16.331-3.238s-9.879-5.294-13.834-9.263l-213.333-213.333c-3.97-3.956-7.118-8.657-9.263-13.834s-3.246-10.727-3.238-16.331v-341.333c0-11.349 4.48-22.187 12.501-30.165l213.333-213.333c3.956-3.968 8.657-7.117 13.834-9.263s10.727-3.247 16.331-3.238h341.333c11.349 0 22.187 4.48 30.165 12.501l213.333 213.333c3.968 3.955 7.117 8.657 9.263 13.833 2.146 5.18 3.247 10.731 3.238 16.333v341.333c0.009 5.604-1.092 11.154-3.238 16.331s-5.295 9.879-9.263 13.834l-213.333 213.333zM554.667 234.667h-85.333v85.333h85.333v-85.333zM554.667 405.333h-85.333v256h85.333v-256z" />
<glyph unicode="&#xe976;" glyph-name="solid-file-blank" d="M256 874.667c-22.632 0-44.337-8.99-60.34-24.994s-24.994-37.708-24.994-60.34v-682.667c0-22.63 8.99-44.335 24.994-60.339s37.708-24.994 60.34-24.994h512c22.63 0 44.335 8.99 60.339 24.994s24.994 37.709 24.994 60.339v512l-256 256h-341.333zM597.333 576h-42.667v213.333l213.333-213.333h-170.667z" />
<glyph unicode="&#xe977;" glyph-name="solid-file-export" d="M768 21.333c22.63 0 44.335 8.99 60.339 24.994s24.994 37.709 24.994 60.339v213.333l-213.333-170.667v128h-298.667v85.333h298.667v128l213.333-170.667v298.667l-256 256h-341.333c-22.632 0-44.337-8.99-60.34-24.994s-24.994-37.708-24.994-60.34v-682.667c0-22.63 8.99-44.335 24.994-60.339s37.708-24.994 60.34-24.994h512zM554.667 789.333l213.333-213.333h-213.333v213.333z" />
<glyph unicode="&#xe978;" glyph-name="solid-file-find" d="M256 21.333h512c7.595 0 14.848 1.28 21.845 3.157l-160.384 160.384c-34.79-23.177-75.661-35.541-117.461-35.541-117.632 0-213.333 95.701-213.333 213.333s95.701 213.333 213.333 213.333c117.632 0 213.333-95.701 213.333-213.333 0.004-41.805-12.361-82.671-35.541-117.461l160.384-160.384c1.877 6.997 3.157 14.251 3.157 21.845v512l-256 256h-341.333c-22.632 0-44.337-8.99-60.34-24.994s-24.994-37.708-24.994-60.34v-682.667c0-22.63 8.99-44.335 24.994-60.339s37.708-24.994 60.34-24.994zM512 234.667c70.694 0 128 57.306 128 128s-57.306 128-128 128c-70.694 0-128-57.306-128-128s57.306-128 128-128z" />
<glyph unicode="&#xe979;" glyph-name="solid-file-import" d="M853.333 362.667v256l-256 256h-341.333c-22.632 0-44.337-8.99-60.34-24.994s-24.994-37.708-24.994-60.34v-682.667c0-22.63 8.99-44.335 24.994-60.339s37.708-24.994 60.34-24.994h512c22.63 0 44.335 8.99 60.339 24.994s24.994 37.709 24.994 60.339v170.667h-298.667v-128l-213.333 170.667 213.333 170.667v-128h298.667zM554.667 789.333l213.333-213.333h-213.333v213.333z" />
<glyph unicode="&#xe97a;" glyph-name="solid-file-plus" d="M256 21.333h512c22.63 0 44.335 8.99 60.339 24.994s24.994 37.709 24.994 60.339v512l-256 256h-341.333c-22.632 0-44.337-8.99-60.34-24.994s-24.994-37.708-24.994-60.34v-682.667c0-22.63 8.99-44.335 24.994-60.339s37.708-24.994 60.34-24.994zM554.667 789.333l213.333-213.333h-213.333v213.333zM341.333 362.667h128v128h85.333v-128h128v-85.333h-128v-128h-85.333v128h-128v85.333z" />
<glyph unicode="&#xe97b;" glyph-name="solid-folder" d="M853.333 746.667h-409.003l-72.832 72.832c-3.957 3.968-8.659 7.115-13.836 9.26s-10.726 3.247-16.33 3.241h-170.667c-47.061 0-85.333-38.272-85.333-85.333v-597.333c0-47.061 38.272-85.333 85.333-85.333h682.667c47.061 0 85.333 38.272 85.333 85.333v512c0 47.061-38.272 85.333-85.333 85.333z" />
<glyph unicode="&#xe97c;" glyph-name="solid-help-circle" d="M512 874.667c-235.264 0-426.667-191.403-426.667-426.667s191.403-426.667 426.667-426.667c235.264 0 426.667 191.403 426.667 426.667s-191.403 426.667-426.667 426.667zM554.667 192h-85.333v85.333h85.333v-85.333zM596.309 400.427c-8.363-6.741-16.427-13.184-22.827-19.584-17.408-17.365-18.773-33.152-18.816-33.835v-5.675h-85.333v7.125c0 5.035 1.237 50.219 43.776 92.757 8.32 8.32 18.645 16.768 29.483 25.557 31.317 25.387 51.883 43.904 51.883 69.419-0.495 21.554-9.408 42.059-24.828 57.126-15.424 15.067-36.13 23.5-57.69 23.494s-42.261-8.449-57.677-23.524c-15.411-15.075-24.311-35.584-24.798-57.138h-85.333c0 92.544 75.307 167.851 167.851 167.851s167.851-75.307 167.851-167.851c0-68.139-50.304-108.8-83.541-135.723z" />
<glyph unicode="&#xe97d;" glyph-name="solid-home-alt" d="M893.013 506.88c-2.133 5.547-5.12 10.24-9.387 14.080l-341.333 341.333c-7.68 8.107-18.773 12.373-29.867 12.373s-22.187-4.267-30.293-12.373l-341.333-341.333c-3.84-3.84-7.253-8.533-9.387-14.080-2.133-5.12-3.413-10.667-3.413-16.213v-384c0-22.613 8.96-44.373 25.173-60.16 15.787-16.213 37.547-25.173 60.16-25.173h597.333c22.613 0 44.373 8.96 60.587 25.173 15.787 15.787 24.747 37.547 24.747 60.16v384c0 5.547-0.853 11.093-2.987 16.213zM597.333 106.667h-170.667v213.333h170.667v-213.333z" />
<glyph unicode="&#xe97e;" glyph-name="solid-hourglass" d="M810.667 21.333h42.667v85.333h-42.667v42.667c-0.081 51.831-13.623 102.754-39.3 147.78s-62.605 82.611-107.174 109.073c-15.147 8.96-24.192 23.339-24.192 38.443v6.741c0 15.104 9.045 29.483 24.149 38.4 44.578 26.466 81.515 64.058 107.2 109.091 25.681 45.033 39.232 95.963 39.317 147.805v42.667h42.667v85.333h-682.667v-85.333h42.667v-42.667c0.087-51.842 13.635-102.772 39.319-147.805s62.622-82.625 107.199-109.091c15.104-8.917 24.149-23.253 24.149-38.4v-6.741c0-15.104-9.045-29.483-24.149-38.4-44.576-26.466-81.515-64.060-107.199-109.090-25.684-45.035-39.232-95.966-39.319-147.806v-42.667h-42.667v-85.333h640zM725.333 789.333v-42.667c-0.064-46.176-15.095-91.087-42.837-128h-340.992c-27.743 36.913-42.773 81.824-42.837 128v42.667h426.667zM403.2 332.715c41.429 24.491 66.133 66.304 66.133 111.915v3.371h85.333v-3.371c0-45.568 24.704-87.424 66.176-111.915 38.336-22.814 68.523-57.118 86.272-98.048h-390.229c17.755 40.939 47.956 75.247 86.315 98.048z" />
<glyph unicode="&#xe97f;" glyph-name="solid-info-circle" d="M512 874.667c-235.264 0-426.667-191.403-426.667-426.667s191.403-426.667 426.667-426.667c235.264 0 426.667 191.403 426.667 426.667s-191.403 426.667-426.667 426.667zM554.667 234.667h-85.333v256h85.333v-256zM554.667 576h-85.333v85.333h85.333v-85.333z" />
<glyph unicode="&#xe980;" glyph-name="solid-info-square" d="M128 789.333v-682.667c0-11.315 4.495-22.17 12.497-30.17s18.854-12.497 30.17-12.497h682.667c11.315 0 22.17 4.497 30.17 12.497s12.497 18.854 12.497 30.17v682.667c0 11.316-4.497 22.168-12.497 30.17s-18.854 12.497-30.17 12.497h-682.667c-11.316 0-22.168-4.495-30.17-12.497s-12.497-18.854-12.497-30.17zM469.333 661.333h85.333v-85.333h-85.333v85.333zM469.333 490.667h85.333v-256h-85.333v256z" />
<glyph unicode="&#xe981;" glyph-name="solid-list-link" d="M797.001 708c-13.807 0-24.998 11.191-24.998 25v141.667h-561.669c-13.809 0-25-11.191-25-25v-175h461.668c6.63 0 12.988-2.63 17.673-7.324l166.669-166.666c4.693-4.689 7.322-11.042 7.322-17.677v-261.666h75.004c13.807 0 24.998 11.191 24.998 24.998v461.668h-141.666zM821.999 839.309v-81.309h81.31l-81.31 81.309zM672 507.998h81.31l-81.31 81.311v-81.311zM566.635 275.857c-11.366 11.375-26.308 17.058-41.25 17.058-6.626 0-13.261-1.126-19.584-3.366l25.476-25.476c9.766-9.762 9.766-25.591 0-35.358-4.877-4.877-11.277-7.322-17.677-7.322-6.391 0-12.791 2.445-17.673 7.322l-25.476 25.476c-7.292-20.553-2.731-44.407 13.692-60.826l47.142-47.142c22.741-22.746 59.75-22.746 82.492 0 22.746 22.741 22.746 59.75 0 82.492l-47.142 47.142zM647.002 458.001c-13.811 0-25.003 11.191-25.003 24.998v141.667h-511.665c-13.809 0-25-11.191-25-25v-553.335c0-13.807 11.191-24.998 25-24.998h653.332c13.811 0 25.003 11.191 25.003 24.998v411.669h-141.666zM649.131 110.869c-20.459-20.459-47.663-31.731-76.604-31.731-28.937 0-56.141 11.273-76.599 31.731l-47.142 47.138c-36.154 36.16-41.336 91.703-15.595 133.449l-27.707 27.708c-16.927-10.479-36.465-16.111-56.869-16.111-28.939 0-56.145 11.268-76.608 31.731l-47.135 47.142c-42.24 42.24-42.24 110.963 0 153.202 20.456 20.463 47.663 31.732 76.602 31.732s56.139-11.27 76.601-31.732l47.142-47.137c20.463-20.459 31.731-47.667 31.731-76.608 0-20.403-5.632-39.94-16.111-56.866l27.708-27.708c41.749 25.741 97.297 20.557 133.449-15.595l47.138-47.142c20.459-20.459 31.731-47.663 31.731-76.599 0-28.941-11.264-56.145-31.731-76.604zM342.723 417.276c9.759 9.766 25.586 9.766 35.351 0l25.475-25.472c7.292 20.557 2.735 44.412-13.691 60.83l-47.136 47.142c-11.022 11.017-25.67 17.084-41.25 17.084s-30.228-6.067-41.25-17.084c-22.741-22.741-22.741-59.75 0-82.5l47.142-47.134c11.016-11.017 25.664-17.088 41.25-17.088 6.79 0 13.399 1.156 19.61 3.362l-25.501 25.51c-9.766 9.766-9.766 25.591 0 35.349z" />
<glyph unicode="&#xe982;" glyph-name="solid-map" d="M512 874.667c-188.202 0-341.332-153.131-341.332-341.12-1.237-274.987 328.362-502.997 341.332-512.213 0 0 342.571 237.227 341.333 512 0 188.203-153.131 341.333-341.333 341.333zM512 362.667c-94.292 0-170.666 76.373-170.666 170.667s76.373 170.667 170.666 170.667c94.293 0 170.667-76.373 170.667-170.667s-76.373-170.667-170.667-170.667z" />
<glyph unicode="&#xe983;" glyph-name="solid-microchip" d="M341.292 21.333h341.332c47.061 0 85.333 38.272 85.333 85.333v682.667c0 47.061-38.272 85.333-85.333 85.333h-341.332c-47.061 0-85.333-38.272-85.333-85.333v-682.667c0-47.061 38.272-85.333 85.333-85.333zM127.958 661.333h85.333v85.333h-85.333v-21.333h-42.667v-42.667h42.667v-21.333zM895.957 746.667h-85.333v-85.333h85.333v21.333h42.667v42.667h-42.667v21.333zM127.958 490.667h85.333v85.333h-85.333v-21.333h-42.667v-42.667h42.667v-21.333zM895.957 576h-85.333v-85.333h85.333v21.333h42.667v42.667h-42.667v21.333zM127.958 320h85.333v85.333h-85.333v-21.333h-42.667v-42.667h42.667v-21.333zM895.957 405.333h-85.333v-85.333h85.333v21.333h42.667v42.667h-42.667v21.333zM127.958 149.333h85.333v85.333h-85.333v-21.333h-42.667v-42.667h42.667v-21.333zM895.957 234.667h-85.333v-85.333h85.333v21.333h42.667v42.667h-42.667v21.333z" />
<glyph unicode="&#xe984;" glyph-name="solid-network-chart" d="M832 832c-28.284-0.023-55.403-11.268-75.401-31.267s-31.245-47.117-31.266-75.4c0-15.232 3.328-29.696 9.131-42.88l-83.413-93.824c-28.335 19.559-61.952 30.036-96.384 30.037-31.573 0-60.757-9.216-86.144-24.149l-97.024 96.981-0.981-0.981c8.363 16.981 13.483 35.883 13.483 56.149 0 25.316-7.507 50.063-21.572 71.113s-34.056 37.455-57.445 47.144c-23.389 9.688-49.126 12.223-73.955 7.284s-47.637-17.129-65.538-35.031c-17.901-17.901-30.092-40.709-35.031-65.538s-2.404-50.566 7.284-73.955c9.688-23.389 26.094-43.38 47.144-57.445s45.797-21.572 71.113-21.572c20.267 0 39.125 5.12 56.149 13.483l-0.981-0.981 97.024-96.981c-15.674-26.027-24.032-55.804-24.192-86.187 0-42.539 16.213-81.024 42.027-110.976l-109.952-109.909c-12.323 4.932-25.467 7.497-38.741 7.552-58.795 0-106.667-47.829-106.667-106.667s47.872-106.667 106.667-106.667c58.795 0 106.667 47.829 106.667 106.667 0 13.696-2.816 26.709-7.552 38.784l121.088 121.088c17.963-6.4 36.992-10.539 57.131-10.539 94.123 0 170.667 76.544 170.667 170.667 0 27.136-6.955 52.437-18.261 75.264l90.325 101.675c10.923-3.755 22.443-6.272 34.603-6.272 58.837 0 106.667 47.829 106.667 106.667s-47.829 106.667-106.667 106.667zM554.667 362.667c-47.061 0-85.333 38.272-85.333 85.333s38.272 85.333 85.333 85.333c47.061 0 85.333-38.272 85.333-85.333s-38.272-85.333-85.333-85.333z" />
<glyph unicode="&#xe985;" glyph-name="solid-news" d="M853.333 234.667c0-11.315-4.497-22.17-12.497-30.17s-18.854-12.497-30.17-12.497c-11.315 0-22.17 4.497-30.17 12.497s-12.497 18.854-12.497 30.17v512c0 11.316-4.497 22.168-12.497 30.17s-18.854 12.497-30.17 12.497h-597.333c-11.316 0-22.168-4.495-30.17-12.497s-12.497-18.854-12.497-30.17v-554.667c0-22.63 8.99-44.335 24.994-60.339s37.708-24.994 60.34-24.994h640c70.571 0 128 57.429 128 128v426.667h-85.333v-426.667zM512 661.333h128v-85.333h-128v85.333zM512 490.667h128v-85.333h-128v85.333zM213.333 661.333h213.333v-256h-213.333v256zM213.333 234.667v85.333h426.667v-85.333h-426.667z" />
<glyph unicode="&#xe986;" glyph-name="solid-notepad" d="M810.667 789.333h-128v85.333h-85.333v-85.333h-170.667v85.333h-85.333v-85.333h-128c-47.061 0-85.333-38.272-85.333-85.333v-597.333c0-47.061 38.272-85.333 85.333-85.333h597.333c47.061 0 85.333 38.272 85.333 85.333v597.333c0 47.061-38.272 85.333-85.333 85.333zM512 362.667h-213.333v85.333h213.333v-85.333zM725.333 533.333h-426.667v85.333h426.667v-85.333z" />
<glyph unicode="&#xe987;" glyph-name="solid-paper-plane" d="M110.933 401.792l147.285-64.469 424.448 231.551-256-298.665 366.933-167.083c6.276-2.748 13.12-3.947 19.955-3.49s13.461 2.551 19.315 6.106c5.854 3.558 10.769 8.474 14.323 14.332s5.645 12.484 6.097 19.319l42.667 639.999c0.474 7.408-0.986 14.811-4.241 21.483s-8.192 12.38-14.323 16.565c-6.127 4.185-13.244 6.701-20.642 7.302s-14.827-0.736-21.551-3.878l-725.333-341.332c-7.399-3.511-13.634-9.075-17.964-16.026s-6.572-14.997-6.459-23.189c0.112-8.188 2.574-16.171 7.093-23.002s10.903-12.215 18.396-15.522zM341.333 14.208l203.776 98.816-203.776 95.061v-193.877z" />
<glyph unicode="&#xe988;" glyph-name="solid-pencil" d="M371.499 119.168l396.501 396.501-188.331 188.331-396.501-396.501c-5.459-5.466-9.336-12.305-11.221-19.797l-43.947-223.701 223.659 43.947c7.509 1.877 14.379 5.76 19.84 11.221zM896 643.669c15.996 16.002 24.986 37.703 24.986 60.331s-8.99 44.328-24.986 60.331l-67.669 67.669c-16.004 15.997-37.705 24.984-60.331 24.984s-44.326-8.987-60.331-24.984l-67.669-67.669 188.331-188.331 67.669 67.669z" />
<glyph unicode="&#xe989;" glyph-name="solid-pin" d="M640 465.664v238.336h85.333v85.333c0 22.632-8.99 44.337-24.994 60.34s-37.709 24.994-60.339 24.994h-256c-22.632 0-44.337-8.99-60.34-24.994s-24.994-37.708-24.994-60.34v-85.333h85.333v-238.336l-115.499-72.832c-3.97-3.955-7.118-8.657-9.263-13.833-2.146-5.18-3.246-10.731-3.238-16.333v-85.333c0-11.315 4.495-22.17 12.497-30.17s18.854-12.497 30.17-12.497h170.667v-128l42.667-85.333 42.667 85.333v128h170.667c11.315 0 22.17 4.497 30.17 12.497s12.497 18.854 12.497 30.17v85.333c0.009 5.602-1.092 11.153-3.238 16.333-2.146 5.175-5.295 9.877-9.263 13.833l-115.499 72.832z" />
<glyph unicode="&#xe98a;" glyph-name="solid-printer" d="M810.667 661.333h-42.667v213.333h-512v-213.333h-42.667c-33.948 0-66.505-13.486-90.51-37.49s-37.49-56.562-37.49-90.51v-298.667c0-22.63 8.99-44.335 24.994-60.339s37.708-24.994 60.34-24.994h85.333v-128h512v128h85.333c22.63 0 44.335 8.99 60.339 24.994s24.994 37.709 24.994 60.339v298.667c0 33.948-13.487 66.505-37.491 90.51s-56.563 37.49-90.509 37.49zM341.333 789.333h341.333v-128h-341.333v128zM341.333 106.667v170.667h341.333v-170.667h-341.333zM810.667 448h-170.667v85.333h170.667v-85.333z" />
</font>
</defs>
</svg>
